<?xml version="1.0" encoding="UTF-8"?>
<COLLADA xmlns="http://www.collada.org/2005/11/COLLADASchema" version="1.4.1">
    <asset>
        <contributor>
            <author>VCGLab</author>
            <authoring_tool>VCGLib | MeshLab</authoring_tool>
        </contributor>
        <created>Fri Jun 6 12:54:07 2025 GMT</created>
        <modified>Fri Jun 6 12:54:07 2025 GMT</modified>
        <up_axis>Y_UP</up_axis>
    </asset>
    <library_geometries>
        <geometry id="shape0-lib" name="shape0">
            <mesh>
                <source id="shape0-lib-positions" name="position">
                    <float_array id="shape0-lib-positions-array" count="285">-83.595 -0.320824 4.89954 -70.033 -1.94286 4.89966 -69.8722 1.10551 4.8996 -83.456 1.50821 4.88886 -82.6286 3.60355 4.89963 -70.4065 2.83926 4.89609 -71.549 4.63272 4.89897 -80.8918 5.48373 4.89897 -73.5702 6.18008 4.8908 -78.7231 6.63032 4.89667 -74.6395 6.58543 4.89741 -76.4796 6.88905 4.89726 -83.1677 -2.5734 4.89639 -71.3685 -4.40969 4.89888 -81.1541 -5.31407 4.89327 -72.9624 -5.78591 4.89999 -79.2904 -6.38219 4.89998 -76.86 -6.94436 4.88851 -77.5507 0.312646 0.0162311 -71.1554 0.848078 2.56744 -70.3449 1.21419 3.85203 -75.5282 -0.437629 0.0628751 -74.3937 0.828637 0.366678 -71.6118 2.65656 2.70352 -71.5492 3.72587 3.60054 -76.5498 1.36806 0.0751926 -74.7384 2.4246 0.623785 -74.6307 5.05933 2.40683 -74.7477 5.95026 3.4952 -76.434 3.10806 0.649794 -77.4489 4.03641 1.20779 -76.8862 5.29886 2.20423 -76.6274 6.65721 4.2321 -79.7127 3.69537 1.71213 -81.1715 4.34462 3.42015 -80.3988 5.42986 4.05329 -80.2132 1.98432 1.1574 -81.634 2.06869 2.28975 -82.2953 2.7697 3.43571 -80.1591 -0.828496 0.881048 -81.3839 -1.6997 1.88463 -82.313 -0.165818 2.56962 -83.0859 -0.428105 3.76482 -78.8739 -0.955019 0.326455 -78.8857 -2.65815 0.820949 -80.1288 -2.7735 1.40735 -80.9574 -4.0924 2.93964 -81.8904 -3.8556 3.90097 -76.8347 -1.30037 0.0921382 -77.8868 -2.37239 0.452954 -78.0173 -4.07484 1.33861 -79.33 -4.43977 2.05957 -78.6415 -5.58981 3.00022 -79.6911 -5.62699 3.68815 -76.7587 -3.32034 0.760964 -76.1848 -4.52894 1.55241 -74.6907 -5.12968 2.42765 -76.2547 -5.93571 3.01029 -74.8748 -6.68447 4.88575 -74.3421 -2.42022 0.772235 -73.2732 -5.22258 3.48995 -72.6806 -1.66755 1.37231 -71.9266 -2.48706 2.28829 -70.7771 -2.12711 3.55792 -79.5889 5.16449 2.97829 -78.7736 4.2104 1.65286 -78.2666 5.75962 3.03935 -78.8624 6.23695 4.1829 -70.2763 -0.627466 3.85379 -72.6492 -0.0609202 1.1588 -71.1997 -0.63996 2.47699 -71.4459 -3.57109 3.64937 -75.7736 -1.87361 0.249886 -73.3149 -3.78832 2.0004 -72.2335 -4.55148 3.67653 -75.1306 -3.85077 1.23048 -74.3525 -5.90856 3.65923 -77.3718 -5.51603 2.48592 -82.2119 -2.79648 3.33935 -82.4635 -1.6818 3.10346 -81.2088 0.436175 1.51514 -78.4301 2.62924 0.66832 -75.7999 4.26979 1.39314 -76.2163 5.95588 3.03101 -74.3266 3.93302 1.58439 -73.2693 2.83301 1.45912 -72.8406 1.53744 1.22233 -72.9956 5.27188 3.8107 -73.1038 4.11764 2.41423 -78.5167 1.31024 0.308494 -80.8578 3.32864 2.26061 -79.889 0.774761 0.744244 -82.5743 1.00159 3.03282 -77.791 -6.47734 4.04414 -74.0313 -1.05009 0.558145</float_array>
                    <technique_common>
                        <accessor count="95" source="#shape0-lib-positions-array" stride="3">
                            <param name="X" type="float"/>
                            <param name="Y" type="float"/>
                            <param name="Z" type="float"/>
                        </accessor>
                    </technique_common>
                </source>
                <source id="shape0-lib-normals" name="normal">
                    <float_array id="shape0-lib-normals-array" count="558">-6.11735e-06 1.94064e-05 1 -0.000616206 0.00588908 0.999982 -0.00093227 -0.00477194 0.999988 0.00042403 0.00215407 0.999998 0.000196745 -0.00148055 0.999999 2.9165e-05 0.000323552 1 0.000545855 0.00599606 0.999982 0.00112885 -0.000133482 0.999999 -0.00037099 -0.0172969 0.99985 -0.000187904 -0.000639335 1 -0.000179974 -0.00143423 0.999999 -0.000239898 -0.000185978 1 -0.000437983 -0.00145879 0.999999 -0.000725021 0.00164703 0.999998 -0.000509269 0.00539255 0.999985 0.00186641 -0.019819 0.999802 0.00259533 -0.00917841 0.999955 0.449112 0.0891021 -0.889021 0.568015 0.442685 -0.693822 0.603177 0.491608 -0.628092 0.172943 0.46214 -0.86978 0.320868 0.853193 -0.411225 -0.0799817 0.810947 -0.579628 -0.154046 0.879544 -0.45019 -0.60187 0.208959 -0.770771 -0.592139 -0.0899964 -0.800795 -0.82256 -0.114534 -0.557026 -0.873943 -0.200278 -0.442846 -0.904874 -0.171106 -0.389776 -0.209144 -0.664674 -0.717264 -0.234568 -0.69574 -0.678913 -0.283077 -0.83215 -0.476858 -0.300064 -0.850949 -0.431101 0.50536 -0.614471 -0.605835 0.611861 -0.708943 -0.350751 0.469526 -0.125315 -0.87398 -0.856291 0.340134 -0.388684 -0.383803 0.621196 -0.683235 -0.12124 0.268648 -0.955578 -0.120993 0.169383 -0.978095 -0.222053 0.480158 -0.848611 -0.279464 0.689485 -0.668214 -0.334441 0.794999 -0.506088 -0.376175 0.793028 -0.479164 -0.404991 0.831868 -0.379443 -0.444262 0.839636 -0.312477 -0.109008 0.945938 -0.305481 0.152212 0.922276 -0.3553 0.171929 0.892289 -0.417446 0.575776 0.750389 -0.324651 0.621361 0.642306 -0.448724 0.789268 0.503347 -0.351706 0.912299 0.0335926 -0.408144 0.819745 -0.16558 -0.548271 0.956882 -0.0504773 -0.286059 0.868203 -0.200371 -0.453954 0.698759 -0.573202 -0.427991 0.545217 -0.730148 -0.411853 0.440736 -0.795894 -0.415095 0.398444 -0.842245 -0.363132 -0.21775 -0.935735 -0.277463 -0.464335 -0.812378 -0.352755 -0.629785 -0.628519 -0.456437 0.830441 0.00917997 -0.55703 0.677933 0.0245123 -0.734715 0.841328 0.0308228 -0.539645 0.40726 -0.0145018 -0.913197 0.247611 -0.166617 -0.954425 0.821738 -0.405931 -0.399958 0.601857 -0.505323 -0.618399 0.181865 -0.637927 -0.748314 0.0754742 -0.52094 -0.85025 0.113908 -0.717649 -0.687026 0.115915 -0.890153 -0.440673 0.00670358 -0.0440371 -0.999007 -0.136161 -0.448976 -0.883108 -0.175638 -0.816028 -0.550681 -0.130984 -0.104532 -0.985858 -0.143272 -0.186529 -0.971946 -0.490688 -0.511375 -0.705493 -0.608282 -0.4085 -0.68053 -0.681765 -0.493352 -0.540185 -0.777804 -0.571161 -0.26229 -0.834003 -0.287865 -0.470715 -0.526504 0.145023 -0.837713 -0.708595 0.143271 -0.690917 -0.370549 0.382763 -0.846278 -0.685874 0.633466 -0.358186 -0.302666 0.455531 -0.837189 -0.48647 0.593555 -0.641123 -0.50073 0.673674 -0.543538 -0.0849356 0.317533 -0.944436 -0.10945 0.421436 -0.900229 -0.162007 0.654857 -0.738184 -0.192973 0.688666 -0.698928 -0.163769 0.877138 -0.451452 -0.0832894 0.847882 -0.523601 0.137543 0.718166 -0.682144 0.195295 0.769086 -0.608577 0.238021 0.613878 -0.752661 0.0323649 0.0251266 -0.99916 0.788156 0.241468 -0.56613 0.156764 0.0953969 -0.983018 0.388083 0.227699 -0.893054 0.409577 0.293419 -0.863801 0.589002 0.329765 -0.737788 0.662045 0.220936 -0.716159 0.814751 0.343923 -0.466795 0.808459 0.339508 -0.480757 0.887267 0.272651 -0.372047 0.220036 0.480534 -0.848924 0.384942 0.734023 -0.559491 0.39136 0.796252 -0.461325 0.351744 0.432606 -0.830137 0.432807 0.501307 -0.749246 0.37973 0.610243 -0.695276 0.423436 0.681886 -0.596433 0.572159 0.609825 -0.548404 0.000582136 0.619396 -0.785079 0.0200516 0.531074 -0.847088 0.137266 0.698476 -0.702345 0.148789 0.875281 -0.460157 -0.369427 0.21017 -0.905181 -0.3438 0.268093 -0.89996 -0.496709 0.395732 -0.772448 -0.574547 0.336709 -0.746005 -0.668454 0.397275 -0.628762 -0.661483 0.466203 -0.587448 -0.725874 0.513433 -0.457704 -0.667532 -0.0734636 -0.740948 -0.258013 0.0330307 -0.965577 -0.397129 -0.0114061 -0.917692 -0.317403 0.0425408 -0.947336 -0.506574 0.0117728 -0.862116 -0.717575 0.112134 -0.687396 -0.841993 0.0253632 -0.538892 -0.889954 0.0894763 -0.447187 -0.908001 0.0665576 -0.413649 -0.393285 -0.253851 -0.883678 -0.629427 -0.404697 -0.663357 -0.404371 -0.244751 -0.881238 -0.512624 -0.231695 -0.826761 -0.717314 -0.295446 -0.631009 -0.785009 -0.458903 -0.416135 -0.367861 -0.710706 -0.599646 -0.264892 -0.267179 -0.926525 -0.196636 -0.440594 -0.875906 -0.311633 -0.488777 -0.814851 -0.337738 -0.479044 -0.810216 -0.459828 -0.66596 -0.587414 -0.544742 -0.685281 -0.48337 -0.0206652 -0.300647 -0.953512 -0.0143268 -0.324369 -0.945822 -0.0427104 -0.561448 -0.826409 -0.0693683 -0.640159 -0.765104 0.0543901 -0.719846 -0.692 -0.0643252 -0.841484 -0.536439 -0.00992159 -0.87962 -0.475573 0.070795 -0.140707 -0.987517 0.360216 -0.458745 -0.812279 0.334853 -0.579978 -0.74263 0.431428 -0.643786 -0.631988 0.18101 -0.389101 -0.903236 0.376754 -0.73266 -0.566804 0.264562 -0.207187 -0.94185 0.421868 -0.232632 -0.876305 0.460674 -0.375917 -0.804031 0.516554 -0.381533 -0.766554 0.606076 -0.503936 -0.615403 0.737276 -0.376987 -0.560629 0.823743 -0.445837 -0.350253 -0.849502 0.240991 -0.469328 -0.761256 0.255891 -0.595826 -0.617787 0.67513 -0.40316 -0.495246 0.582592 -0.644452 0.108513 0.305204 -0.946084 0.178944 0.194039 -0.964535 0.646717 0.107437 -0.755125 0.299296 -0.0394208 -0.953346 0.643343 -0.113186 -0.757165 0.752842 -0.233404 -0.615429 0.668159 -0.189446 -0.719495 0.173576 -0.863987 -0.47265 0.203373 -0.801315 -0.562614 0.128275 -0.40685 -0.904444 -0.740478 -0.156673 -0.653564</float_array>
                    <technique_common>
                        <accessor count="186" source="#shape0-lib-normals-array" stride="3">
                            <param name="X" type="float"/>
                            <param name="Y" type="float"/>
                            <param name="Z" type="float"/>
                        </accessor>
                    </technique_common>
                </source>
                <source id="shape0-lib-map" name="map">
                    <float_array id="shape0-lib-map-array" count="1116">0 0 0 0 0 0 0 0 0 0 0 0 0 0 0 0 0 0 0 0 0 0 0 0 0 0 0 0 0 0 0 0 0 0 0 0 0 0 0 0 0 0 0 0 0 0 0 0 0 0 0 0 0 0 0 0 0 0 0 0 0 0 0 0 0 0 0 0 0 0 0 0 0 0 0 0 0 0 0 0 0 0 0 0 0 0 0 0 0 0 0 0 0 0 0 0 0 0 0 0 0 0 0 0 0 0 0 0 0 0 0 0 0 0 0 0 0 0 0 0 0 0 0 0 0 0 0 0 0 0 0 0 0 0 0 0 0 0 0 0 0 0 0 0 0 0 0 0 0 0 0 0 0 0 0 0 0 0 0 0 0 0 0 0 0 0 0 0 0 0 0 0 0 0 0 0 0 0 0 0 0 0 0 0 0 0 0 0 0 0 0 0 0 0 0 0 0 0 0 0 0 0 0 0 0 0 0 0 0 0 0 0 0 0 0 0 0 0 0 0 0 0 0 0 0 0 0 0 0 0 0 0 0 0 0 0 0 0 0 0 0 0 0 0 0 0 0 0 0 0 0 0 0 0 0 0 0 0 0 0 0 0 0 0 0 0 0 0 0 0 0 0 0 0 0 0 0 0 0 0 0 0 0 0 0 0 0 0 0 0 0 0 0 0 0 0 0 0 0 0 0 0 0 0 0 0 0 0 0 0 0 0 0 0 0 0 0 0 0 0 0 0 0 0 0 0 0 0 0 0 0 0 0 0 0 0 0 0 0 0 0 0 0 0 0 0 0 0 0 0 0 0 0 0 0 0 0 0 0 0 0 0 0 0 0 0 0 0 0 0 0 0 0 0 0 0 0 0 0 0 0 0 0 0 0 0 0 0 0 0 0 0 0 0 0 0 0 0 0 0 0 0 0 0 0 0 0 0 0 0 0 0 0 0 0 0 0 0 0 0 0 0 0 0 0 0 0 0 0 0 0 0 0 0 0 0 0 0 0 0 0 0 0 0 0 0 0 0 0 0 0 0 0 0 0 0 0 0 0 0 0 0 0 0 0 0 0 0 0 0 0 0 0 0 0 0 0 0 0 0 0 0 0 0 0 0 0 0 0 0 0 0 0 0 0 0 0 0 0 0 0 0 0 0 0 0 0 0 0 0 0 0 0 0 0 0 0 0 0 0 0 0 0 0 0 0 0 0 0 0 0 0 0 0 0 0 0 0 0 0 0 0 0 0 0 0 0 0 0 0 0 0 0 0 0 0 0 0 0 0 0 0 0 0 0 0 0 0 0 0 0 0 0 0 0 0 0 0 0 0 0 0 0 0 0 0 0 0 0 0 0 0 0 0 0 0 0 0 0 0 0 0 0 0 0 0 0 0 0 0 0 0 0 0 0 0 0 0 0 0 0 0 0 0 0 0 0 0 0 0 0 0 0 0 0 0 0 0 0 0 0 0 0 0 0 0 0 0 0 0 0 0 0 0 0 0 0 0 0 0 0 0 0 0 0 0 0 0 0 0 0 0 0 0 0 0 0 0 0 0 0 0 0 0 0 0 0 0 0 0 0 0 0 0 0 0 0 0 0 0 0 0 0 0 0 0 0 0 0 0 0 0 0 0 0 0 0 0 0 0 0 0 0 0 0 0 0 0 0 0 0 0 0 0 0 0 0 0 0 0 0 0 0 0 0 0 0 0 0 0 0 0 0 0 0 0 0 0 0 0 0 0 0 0 0 0 0 0 0 0 0 0 0 0 0 0 0 0 0 0 0 0 0 0 0 0 0 0 0 0 0 0 0 0 0 0 0 0 0 0 0 0 0 0 0 0 0 0 0 0 0 0 0 0 0 0 0 0 0 0 0 0 0 0 0 0 0 0 0 0 0 0 0 0 0 0 0 0 0 0 0 0 0 0 0 0 0 0 0 0 0 0 0 0 0 0 0 0 0 0 0 0 0 0 0 0 0 0 0 0 0 0 0 0 0 0 0 0 0 0 0 0 0 0 0 0 0 0 0 0 0 0 0 0 0 0 0 0 0 0 0 0 0 0 0 0 0 0 0 0 0 0 0 0 0 0 0 0 0 0 0 0 0 0 0 0 0 0 0 0 0 0 0 0 0 0 0 0 0 0 0 0 0 0 0 0 0 0 0 0 0 0 0 0 0 0 0 0 0 0 0 0 0 0 0 0 0 0 0 0 0 0 0 0 0 0 0 0 0 0 0 0 0 0 0 0 0 0 0 0 0 0 0 0 0 0 0 0 0 0 0 0 0 0 0 0 0 0 0 0 0 0 0 0 0 0 0 0 0 0 0 0 0 0 0 0 0 0 0 0 0 0 0 0 0 0 0 0 0 0 0 0 0 0 0 0 0 0 0 0 0 0 0 0 0 0 0 0 0 0 0 0 0 0 0 0 0 0 0 0 0 0 0 0 0 0 0 0 0 0 0 0 0 0 0 0 0 0 0 0 0 0 0 0 0 0 0 0 0 0 0 0 0 0 0 0 0 0 0 0 0 0 0 0 0 0</float_array>
                    <technique_common>
                        <accessor count="558" source="#shape0-lib-map-array" stride="2">
                            <param name="U" type="float"/>
                            <param name="V" type="float"/>
                        </accessor>
                    </technique_common>
                </source>
                <vertices id="shape0-lib-vertices">
                    <input semantic="POSITION" source="#shape0-lib-positions"/>
                </vertices>
                <triangles count="186">
                    <input offset="0" semantic="VERTEX" source="#shape0-lib-vertices"/>
                    <input offset="1" semantic="NORMAL" source="#shape0-lib-normals"/>
                    <input offset="2" semantic="TEXCOORD" source="#shape0-lib-map"/>
                    <p>0 0 0 1 0 1 2 0 2 0 1 3 2 1 4 3 1 5 3 2 6 2 2 7 4 2 8 4 3 9 2 3 10 5 3 11 4 4 12 5 4 13 6 4 14 4 5 15 6 5 16 7 5 17 7 6 18 6 6 19 8 6 20 7 7 21 8 7 22 9 7 23 9 8 24 8 8 25 10 8 26 9 9 27 10 9 28 11 9 29 1 10 30 0 10 31 12 10 32 1 11 33 12 11 34 13 11 35 13 12 36 12 12 37 14 12 38 13 13 39 14 13 40 15 13 41 15 14 42 14 14 43 16 14 44 15 15 45 16 15 46 58 15 47 58 16 48 16 16 49 17 16 50 22 17 51 86 17 52 69 17 53 23 18 54 85 18 55 88 18 56 23 19 57 88 19 58 24 19 59 26 20 60 29 20 61 82 20 62 8 21 63 28 21 64 10 21 65 31 22 66 66 22 67 83 22 68 32 23 69 66 23 70 9 23 71 36 24 72 80 24 73 37 24 74 39 25 75 40 25 76 80 25 77 41 26 78 79 26 79 42 26 80 42 27 81 79 27 82 12 27 83 42 28 84 12 28 85 0 28 86 50 29 87 77 29 88 51 29 89 51 30 90 77 30 91 52 30 92 52 31 93 93 31 94 53 31 95 53 32 96 93 32 97 16 32 98 73 33 99 74 33 100 60 33 101 74 34 102 13 34 103 15 34 104 94 35 105 69 35 106 61 35 107 3 36 108 4 36 109 38 36 110 64 37 111 65 37 112 33 37 113 89 38 114 81 38 115 25 38 116 89 39 117 25 39 118 18 39 119 30 40 120 81 40 121 65 40 122 66 41 123 65 41 124 64 41 125 66 42 126 64 42 127 67 42 128 67 43 129 64 43 130 35 43 131 67 44 132 35 44 133 9 44 134 7 45 135 9 45 136 35 45 137 32 46 138 9 46 139 11 46 140 32 47 141 11 47 142 10 47 143 32 48 144 10 48 145 28 48 146 87 49 147 8 49 148 6 49 149 87 50 150 6 50 151 24 50 152 6 51 153 5 51 154 24 51 155 20 52 156 2 52 157 68 52 158 70 53 159 68 53 160 63 53 161 2 54 162 1 54 163 68 54 164 68 55 165 1 55 166 63 55 167 71 56 168 13 56 169 74 56 170 74 57 171 15 57 172 60 57 173 60 58 174 15 58 175 76 58 176 76 59 177 15 59 178 58 59 179 93 60 180 17 60 181 16 60 182 53 61 183 16 61 184 14 61 185 46 62 186 14 62 187 47 62 188 70 63 189 19 63 190 68 63 191 70 64 192 69 64 193 19 64 194 68 65 195 19 65 196 20 65 197 94 66 198 22 66 199 69 66 200 72 67 201 21 67 202 94 67 203 71 68 204 63 68 205 1 68 206 73 69 207 62 69 208 74 69 209 55 70 210 75 70 211 56 70 212 54 71 213 75 71 214 55 71 215 55 72 216 56 72 217 57 72 218 57 73 219 58 73 220 17 73 221 18 74 222 21 74 223 48 74 224 49 75 225 54 75 226 50 75 227 52 76 228 77 76 229 93 76 230 18 77 231 48 77 232 43 77 233 43 78 234 48 78 235 49 78 236 45 79 237 51 79 238 46 79 239 40 80 240 45 80 241 46 80 242 78 81 243 46 81 244 47 81 245 47 82 246 14 82 247 12 82 248 79 83 249 78 83 250 12 83 251 91 84 252 80 84 253 36 84 254 37 85 255 80 85 256 92 85 257 81 86 258 36 86 259 33 86 260 34 87 261 4 87 262 7 87 263 81 88 264 33 88 265 65 88 266 64 89 267 33 89 268 34 89 269 64 90 270 34 90 271 35 90 272 25 91 273 81 91 274 29 91 275 29 92 276 81 92 277 30 92 278 30 93 279 65 93 280 31 93 281 31 94 282 65 94 283 66 94 284 66 95 285 67 95 286 9 95 287 83 96 288 66 96 289 32 96 290 27 97 291 31 97 292 83 97 293 27 98 294 83 98 295 28 98 296 84 99 297 82 99 298 27 99 299 18 100 300 25 100 301 21 100 302 19 101 303 23 101 304 20 101 305 25 102 306 22 102 307 21 102 308 22 103 309 26 103 310 86 103 311 26 104 312 85 104 313 86 104 314 85 105 315 23 105 316 86 105 317 86 106 318 23 106 319 19 106 320 23 107 321 24 107 322 20 107 323 24 108 324 5 108 325 20 108 326 20 109 327 5 109 328 2 109 329 26 110 330 82 110 331 84 110 332 27 111 333 28 111 334 87 111 335 87 112 336 28 112 337 8 112 338 26 113 339 84 113 340 85 113 341 84 114 342 88 114 343 85 114 344 84 115 345 27 115 346 88 115 347 27 116 348 87 116 349 88 116 350 88 117 351 87 117 352 24 117 353 82 118 354 30 118 355 31 118 356 29 119 357 30 119 358 82 119 359 82 120 360 31 120 361 27 120 362 83 121 363 32 121 364 28 121 365 89 122 366 91 122 367 36 122 368 89 123 369 36 123 370 81 123 371 36 124 372 90 124 373 33 124 374 36 125 375 37 125 376 90 125 377 37 126 378 38 126 379 90 126 380 90 127 381 38 127 382 34 127 383 38 128 384 4 128 385 34 128 386 80 129 387 40 129 388 41 129 389 18 130 390 43 130 391 89 130 392 43 131 393 39 131 394 91 131 395 43 132 396 91 132 397 89 132 398 39 133 399 80 133 400 91 133 401 41 134 402 92 134 403 80 134 404 41 135 405 42 135 406 92 135 407 92 136 408 42 136 409 3 136 410 42 137 411 0 137 412 3 137 413 43 138 414 44 138 415 45 138 416 40 139 417 46 139 418 78 139 419 43 140 420 45 140 421 39 140 422 45 141 423 40 141 424 39 141 425 40 142 426 78 142 427 79 142 428 47 143 429 12 143 430 78 143 431 51 144 432 52 144 433 53 144 434 49 145 435 44 145 436 43 145 437 49 146 438 50 146 439 44 146 440 50 147 441 51 147 442 44 147 443 44 148 444 51 148 445 45 148 446 51 149 447 53 149 448 46 149 449 53 150 450 14 150 451 46 150 452 48 151 453 72 151 454 49 151 455 72 152 456 54 152 457 49 152 458 54 153 459 55 153 460 50 153 461 55 154 462 77 154 463 50 154 464 55 155 465 57 155 466 77 155 467 57 156 468 93 156 469 77 156 470 57 157 471 17 157 472 93 157 473 21 158 474 72 158 475 48 158 476 75 159 477 59 159 478 73 159 479 75 160 480 73 160 481 56 160 482 56 161 483 73 161 484 60 161 485 72 162 486 59 162 487 75 162 488 56 163 489 60 163 490 76 163 491 72 164 492 94 164 493 59 164 494 94 165 495 61 165 496 59 165 497 59 166 498 61 166 499 73 166 500 61 167 501 62 167 502 73 167 503 62 168 504 71 168 505 74 168 506 62 169 507 63 169 508 71 169 509 71 170 510 1 170 511 13 170 512 3 171 513 38 171 514 92 171 515 38 172 516 37 172 517 92 172 518 7 173 519 35 173 520 34 173 521 34 174 522 33 174 523 90 174 524 26 175 525 25 175 526 29 175 527 22 176 528 25 176 529 26 176 530 19 177 531 69 177 532 86 177 533 21 178 534 22 178 535 94 178 536 61 179 537 69 179 538 70 179 539 63 180 540 62 180 541 70 180 542 70 181 543 62 181 544 61 181 545 58 182 546 57 182 547 76 182 548 57 183 549 56 183 550 76 183 551 54 184 552 72 184 553 75 184 554 79 185 555 41 185 556 40 185 557</p>
                </triangles>
            </mesh>
        </geometry>
    </library_geometries>
    <library_visual_scenes>
        <visual_scene id="VisualSceneNode" name="VisualScene">
            <node id="node" name="node">
                <instance_geometry url="#shape0-lib"/>
            </node>
        </visual_scene>
    </library_visual_scenes>
    <scene>
        <instance_visual_scene url="#VisualSceneNode"/>
    </scene>
</COLLADA>
