<COLLADA xmlns="http://www.collada.org/2005/11/COLLADASchema" version="1.4.1">
  <asset>
    <created>2025-05-12T22:56:25.842084</created>
    <modified>2025-05-12T22:56:25.842098</modified>
    <up_axis>Y_UP</up_axis>
  </asset>
  <library_effects>
    <effect id="3be8152d32eb424dbbb72c74ea191908" name="3be8152d32eb424dbbb72c74ea191908">
      <profile_COMMON>
        <technique sid="common">
          <phong>
            <emission>
              <color>0.0 0.0 0.0 1.0</color>
            </emission>
            <ambient>
              <color>0.0 0.0 0.0 1.0</color>
            </ambient>
            <diffuse>
              <color>0.0 0.0 0.0 1.0</color>
            </diffuse>
            <specular>
              <color>0.0 0.0 0.0 1.0</color>
            </specular>
            <shininess>
              <float>0.0</float>
            </shininess>
            <reflective>
              <color>0.0 0.0 0.0 1.0</color>
            </reflective>
            <reflectivity>
              <float>0.0</float>
            </reflectivity>
            <transparent>
              <color>0.0 0.0 0.0 1.0</color>
            </transparent>
            <transparency>
              <float>1.0</float>
            </transparency>
          </phong>
        </technique>
        <extra>
          <technique profile="GOOGLEEARTH">
            <double_sided>0</double_sided>
          </technique>
        </extra>
      </profile_COMMON>
    </effect>
  </library_effects>
  <library_geometries>
    <geometry id="3aadf1cc99104d259c8dc31c39e1f1ba" name="5915ed4f06f14547ab7b89a0b65dfc2d">
      <mesh>
        <source id="verts-array">
          <float_array count="285" id="verts-array-array">1.035734 77.80884 35.19403 -3.115454 77.80249 33.09762 -0.8730484 77.80075 29.64998 -2.791686 -77.80032 32.37298 1.710713 -77.80002 34.74647 -1.081084 -77.80003 34.99451 2.413055 77.80031 31.26972 -0.4003311 -77.79974 29.60142 2.906924 -77.79962 31.69213 -75.77911 -63.59768 62.05467 -101.75 -25.75 18.06272 -75.63805 63.72462 18.06471 -58.5 69 18.06272 -7 69 18.06272 30.82723 43.01014 18.08704 36.25 25.75 18.06272 30.62763 -43.2724 18.07003 10.15514 -63.70555 18.05749 -7 -69 18.06272 -58.5 -69 18.06272 10.38346 63.55466 18.07223 -75.65029 -63.61925 146.034 -7 -69 146.0627 10.13804 -63.72462 144.0647 -76.03918 -63.37125 144.0583 -96.35342 -42.95225 144.084 -96.15357 43.23266 144.0713 30.82723 43.01014 144.087 30.84481 -43.02664 146.0555 30.61201 43.2769 146.0622 -96.34773 43.02904 20.052 10.45437 -63.36209 146.0371 -58.5 69 146.0627 -101.75 25.75 146.0627 -58.5 -69 146.0627 -75.64985 -63.61913 20.04113 -75.63805 63.72462 144.0647 -101.75 25.75 18.06272 -96.34773 43.02904 146.052 -76.03917 -63.37126 102.0583 36.25 -25.75 146.0627 10.27904 63.59772 146.052 -96.15357 43.23266 18.07127 36.25 -25.75 18.06272 -7 69 146.0627 -76.03918 -63.37126 18.05829 30.84481 -43.02664 62.05553 -96.35342 -42.95225 18.08396 36.25 25.75 146.0627 -96.15898 -43.20796 104.0569 -75.95438 63.36209 146.0371 -101.75 -25.75 146.0627 -96.15896 -43.20797 146.0559 -96.15899 -43.20796 20.05759 30.84478 -43.02667 20.0584 -62.72253 1.033359 166.9976 -62.05181 6.228292 167 -53.6157 21.5492 167.0001 -48.68077 25.41571 167 -43.04986 28.17203 167.0001 -59.29054 -14.27577 166.9986 -53.67544 -21.47013 167.0001 -48.75545 -25.35094 167.0001 -18.79251 -26.53532 167.0001 -24.62541 -28.85918 167.0001 -62.05181 -6.228292 167 -5.334806 12.6248 167.0001 -12.50316 -22.32912 167.0006 -2.676386 1.343209 166.9985 -24.5293 28.84743 167.0001 -30.80178 -29.91758 167.0002 -36.96916 29.69766 167.0001 -59.1898 14.51696 166.9985 -30.70455 29.92606 167.0002 -43.13621 -28.12428 167.0001 -4.975732 -11.98585 167.001 -11.35314 21.01975 167 -37.06323 -29.66899 167.0001 -16.59151 25.39862 166.9999 36.25532 4.938454 140.4403 22.45469 5.381027 158.262 9.750031 69.21997 60.06272 23.2983 -3.286222 158.2621 -79.30158 -6.966729 4.902252 -69.48845 1.828572 4.909873 -71.32859 -5.036101 4.937826 -74.29073 -6.905322 4.920012 -74.0953 6.835913 4.917218 -84.0245 -0.3839425 4.900423 -78.07971 7.154357 4.943968 -82.43508 4.251354 4.888107 10.80294 68.40047 21.34272 11.1 -68.4 21.34272 11.1 -68.4 43.56272 10.80294 68.40047 43.56271</float_array>
          <technique_common>
            <accessor count="95" source="#verts-array-array" stride="3">
              <param type="float" name="X"/>
              <param type="float" name="Y"/>
              <param type="float" name="Z"/>
            </accessor>
          </technique_common>
        </source>
        <source id="normals-array">
          <float_array count="285" id="normals-array-array">0.1212787 0.9904953 0.06488895 -0.08290337 0.9964961 -0.01107262 0.05444552 0.934339 -0.352202 -0.08638961 -0.9958562 -0.02841328 0.1127885 -0.991721 0.06138517 -0.02048048 -0.9989213 0.04167453 0.3926303 0.9049661 -0.1639447 0.07338012 -0.9320227 -0.354893 0.4047776 -0.9041295 -0.1367659 -0.4879015 -0.8728987 -2.150114e-05 -0.8641159 -0.1504478 -0.4802804 -0.4144817 0.7113094 -0.5676653 -0.1566533 0.7709718 -0.6173024 0.05348202 0.5203293 -0.8522893 0.6848717 0.3682842 -0.6287428 0.7650338 0.118227 -0.6330447 0.6678205 -0.3731702 -0.6440185 0.2303464 -0.340525 -0.9115828 0.05183593 -0.5194964 -0.8528989 -0.1586718 -0.7710823 -0.6166485 0.243371 0.3450753 -0.9064732 -0.4366584 -0.737249 0.5155514 0.1326139 -0.8285551 0.5439762 0.4109708 -0.906783 0.09406146 -0.6328685 -0.7741318 0.01405108 -0.8915102 -0.4527789 0.01417171 -0.714877 0.6992496 0.0009422534 0.8869264 0.461601 0.0169137 0.7351281 -0.4514641 0.5057339 0.7206988 0.4605135 0.5181897 -0.8656163 0.500449 -0.01609952 0.4539099 -0.7080642 0.5409352 -0.1499914 0.8415374 0.5189581 -0.8515966 0.1370963 0.5059524 -0.1503927 -0.8422151 0.517741 -0.4125324 -0.9107915 -0.01660987 -0.503592 0.8631162 0.0377574 -0.8626589 0.1510884 -0.4826923 -0.7362964 0.447786 0.507302 -0.6822785 -0.7310923 7.523291e-08 0.8812044 -0.1561865 0.446189 0.4483335 0.7154168 0.535888 -0.702353 0.4626856 -0.5409457 0.7647892 -0.1180702 -0.6333695 0.1297123 0.8293152 0.5435173 -0.4266161 -0.695521 -0.5781429 0.8859532 -0.4637746 -5.158435e-08 -0.7176004 -0.4481607 -0.5331056 0.879276 0.1577342 0.449437 -0.7536357 -0.6572924 8.143569e-08 -0.4604897 0.708859 0.5342922 -0.8511352 -0.1382856 0.5064049 -0.7234536 -0.4564007 0.5179897 -0.7516352 -0.6595544 -0.005705036 0.8889857 -0.4575132 -0.01964911 -0.251287 0.003470265 0.9679064 -0.2327081 0.0501734 0.9712515 -0.1577306 0.158915 0.9746112 -0.1176674 0.1894926 0.9748061 -0.07556524 0.2187279 0.9728556 -0.2072961 -0.1073541 0.97237 -0.1586423 -0.158214 0.9745773 -0.1182561 -0.1886743 0.9748936 0.1024126 -0.2007855 0.9742673 0.06003894 -0.2277178 0.9718744 -0.2373968 -0.04569541 0.9703374 0.1884579 0.103553 0.9766066 0.1580922 -0.165371 0.9734779 0.1795995 0.007914283 0.983708 0.06287099 0.227194 0.9718179 0.01190986 -0.249137 0.968395 -0.0288141 0.2440694 0.9693296 -0.2065562 0.1085783 0.9723915 0.01250873 0.2491804 0.9683763 -0.07600323 -0.2181815 0.9729442 0.1907459 -0.1012078 0.9764082 0.1638738 0.1533358 0.9744914 -0.0296454 -0.2435857 0.9694262 0.1185868 0.1945402 0.9736998 0.9999999 2.623681e-05 0.0004033332 0.4535108 0.1030834 0.8852693 0.7190159 0.6943771 0.02926509 0.4916487 -0.0550434 0.8690522 -0.1163231 -0.1396207 -0.9833489 0.0711819 0.01910161 -0.9972804 0.06249445 -0.05120416 -0.9967309 0.01985113 -0.1028177 -0.9945021 0.02643116 0.09958171 -0.9946783 -0.3179093 -0.01703435 -0.9479681 -0.05293479 0.1441387 -0.9881407 -0.2106902 0.110269 -0.9713137 0.5344961 0.6961524 -0.4792554 0.5382383 -0.6905912 -0.4830976 0.7636969 -0.6454908 0.01042557 0.7614588 0.6481874 0.005803565</float_array>
          <technique_common>
            <accessor count="95" source="#normals-array-array" stride="3">
              <param type="float" name="X"/>
              <param type="float" name="Y"/>
              <param type="float" name="Z"/>
            </accessor>
          </technique_common>
        </source>
        <vertices id="verts-array-vertices">
          <input semantic="POSITION" source="#verts-array"/>
        </vertices>
        <triangles count="186" material="material0">
          <input offset="0" semantic="VERTEX" source="#verts-array-vertices"/>
          <input offset="1" semantic="NORMAL" source="#normals-array"/>
          <p>0 0 32 32 44 44 88 88 10 10 37 37 31 31 28 28 67 67 1 1 32 32 0 0 1 1 12 12 32 32 11 11 12 12 89 89 88 88 37 37 42 42 31 31 22 22 23 23 28 28 40 40 82 82 33 33 51 51 55 55 21 21 9 9 34 34 34 34 5 5 22 22 3 3 5 5 34 34 43 43 15 15 79 79 30 30 42 42 37 37 38 38 36 36 26 26 88 88 42 42 90 90 90 90 42 42 11 11 11 11 89 89 90 90 24 24 9 9 21 21 8 8 93 93 28 28 8 8 23 23 22 22 31 31 23 23 8 8 8 8 28 28 31 31 75 75 67 67 28 28 28 28 82 82 75 75 56 56 38 38 33 33 33 33 55 55 56 56 21 21 34 34 74 74 13 13 89 89 12 12 48 48 40 40 79 79 48 48 82 82 40 40 41 41 29 29 81 81 47 47 10 10 88 88 9 9 24 24 39 39 9 9 39 39 45 45 45 45 39 39 24 24 4 4 5 5 3 3 3 3 8 8 4 4 22 22 5 5 4 4 4 4 8 8 22 22 92 92 18 18 17 17 93 93 8 8 92 92 7 7 8 8 3 3 18 18 92 92 7 7 7 7 92 92 8 8 31 31 67 67 63 63 70 70 34 34 22 22 67 67 75 75 70 70 75 75 74 74 70 70 51 51 25 25 52 52 52 52 24 24 21 21 65 65 55 55 51 51 51 51 52 52 65 65 65 65 52 52 60 60 65 65 56 56 55 55 75 75 56 56 65 65 61 61 52 52 21 21 60 60 52 52 61 61 61 61 65 65 60 60 75 75 65 65 61 61 2 2 1 1 0 0 12 12 1 1 2 2 2 2 13 13 12 12 17 17 85 85 16 16 16 16 85 85 43 43 43 43 54 54 16 16 16 16 92 92 17 17 54 54 92 92 16 16 15 15 43 43 84 84 43 43 85 85 84 84 84 84 14 14 15 15 17 17 18 18 86 86 86 86 85 85 17 17 86 86 84 84 85 85 82 82 48 48 80 80 80 80 48 48 29 29 29 29 48 48 27 27 9 9 45 45 35 35 46 46 54 54 43 43 46 46 92 92 54 54 38 38 56 56 72 72 32 32 36 36 50 50 50 50 36 36 38 38 73 73 44 44 32 32 77 77 74 74 34 34 34 34 70 70 77 77 77 77 70 70 74 74 64 64 70 70 22 22 64 64 22 22 31 31 31 31 63 63 64 64 64 64 63 63 67 67 67 67 70 70 64 64 25 25 47 47 53 53 47 47 45 45 53 53 53 53 45 45 24 24 21 21 74 74 62 62 62 62 61 61 21 21 62 62 74 74 75 75 75 75 61 61 62 62 20 20 13 13 91 91 13 13 2 2 91 91 91 91 14 14 20 20 20 20 14 14 87 87 14 14 84 84 87 87 89 89 13 13 87 87 87 87 13 13 20 20 87 87 90 90 89 89 87 87 84 84 90 90 83 83 86 86 18 18 83 83 47 47 88 88 83 83 45 45 47 47 88 88 90 90 83 83 90 90 84 84 83 83 84 84 86 86 83 83 57 57 72 72 56 56 57 57 56 56 75 75 38 38 72 72 57 57 75 75 73 73 57 57 57 57 50 50 38 38 58 58 50 50 57 57 32 32 50 50 59 59 59 59 50 50 58 58 58 58 57 57 59 59 59 59 57 57 73 73 41 41 44 44 69 69 44 44 73 73 69 69 69 69 73 73 75 75 49 49 52 52 25 25 25 25 53 53 49 49 24 24 52 52 49 49 49 49 53 53 24 24 6 6 2 2 0 0 6 6 91 91 2 2 41 41 81 81 6 6 0 0 44 44 6 6 6 6 44 44 41 41 29 29 27 27 94 94 94 94 81 81 29 29 94 94 6 6 81 81 91 91 6 6 94 94 45 45 83 83 19 19 19 19 7 7 3 3 19 19 35 35 45 45 9 9 35 35 19 19 71 71 73 73 32 32 32 32 59 59 71 71 71 71 59 59 73 73 76 76 29 29 41 41 76 76 69 69 75 75 41 41 69 69 78 78 78 78 76 76 41 41 69 69 76 76 78 78 66 66 80 80 29 29 29 29 76 76 66 66 66 66 76 76 75 75 68 68 75 75 82 82 68 68 66 66 75 75 82 82 80 80 68 68 80 80 66 66 68 68 33 33 37 37 51 51 51 51 37 37 10 10 36 36 12 12 11 11 32 32 12 12 36 36 79 79 40 40 43 43 30 30 37 37 33 33 33 33 38 38 30 30 26 26 30 30 38 38 42 42 30 30 26 26 26 26 36 36 11 11 11 11 42 42 26 26 79 79 15 15 48 48 47 47 51 51 10 10 47 47 25 25 51 51 15 15 14 14 27 27 27 27 48 48 15 15 46 46 43 43 40 40 46 46 40 40 28 28 28 28 93 93 46 46 93 93 92 92 46 46 94 94 27 27 14 14 14 14 91 91 94 94 19 19 83 83 18 18 18 18 7 7 19 19 3 3 34 34 19 19 19 19 34 34 9 9</p>
        </triangles>
      </mesh>
    </geometry>
  </library_geometries>
  <library_materials>
    <material id="5f7ef1af818349baab19dd1e2cda518d" name="defaultmaterial">
      <instance_effect url="#3be8152d32eb424dbbb72c74ea191908"/>
    </material>
  </library_materials>
  <library_visual_scenes>
    <visual_scene id="scene">
      <node id="node0" name="node0">
        <instance_geometry url="#3aadf1cc99104d259c8dc31c39e1f1ba">
          <bind_material>
            <technique_common>
              <instance_material symbol="material0" target="#5f7ef1af818349baab19dd1e2cda518d"/>
            </technique_common>
          </bind_material>
        </instance_geometry>
      </node>
    </visual_scene>
  </library_visual_scenes>
  <scene>
    <instance_visual_scene url="#scene"/>
  </scene>
</COLLADA>
