<COLLADA xmlns="http://www.collada.org/2005/11/COLLADASchema" version="1.4.1">
  <asset>
    <created>2025-05-12T22:56:25.808875</created>
    <modified>2025-05-12T22:56:25.808885</modified>
    <up_axis>Y_UP</up_axis>
  </asset>
  <library_effects>
    <effect id="d46f9c446b51487dadf6c26d00ac234a" name="d46f9c446b51487dadf6c26d00ac234a">
      <profile_COMMON>
        <technique sid="common">
          <phong>
            <emission>
              <color>0.0 0.0 0.0 1.0</color>
            </emission>
            <ambient>
              <color>0.0 0.0 0.0 1.0</color>
            </ambient>
            <diffuse>
              <color>0.0 0.0 0.0 1.0</color>
            </diffuse>
            <specular>
              <color>0.0 0.0 0.0 1.0</color>
            </specular>
            <shininess>
              <float>0.0</float>
            </shininess>
            <reflective>
              <color>0.0 0.0 0.0 1.0</color>
            </reflective>
            <reflectivity>
              <float>0.0</float>
            </reflectivity>
            <transparent>
              <color>0.0 0.0 0.0 1.0</color>
            </transparent>
            <transparency>
              <float>1.0</float>
            </transparency>
          </phong>
        </technique>
        <extra>
          <technique profile="GOOGLEEARTH">
            <double_sided>0</double_sided>
          </technique>
        </extra>
      </profile_COMMON>
    </effect>
  </library_effects>
  <library_geometries>
    <geometry id="9332985ea92d4e80aea5e7230a4443e4" name="0ba8c6730e744352810436e382321abc">
      <mesh>
        <source id="verts-array">
          <float_array count="285" id="verts-array-array">-83.59497 -0.3208244 4.899544 -69.87224 1.105506 4.8996 -83.45603 1.508214 4.888858 -82.62862 3.603551 4.899628 -70.40648 2.839257 4.896092 -80.89176 5.483726 4.898969 -71.54896 4.632721 4.898972 -73.57018 6.180078 4.890797 -78.72313 6.630323 4.896674 -76.47958 6.889054 4.897261 -83.16766 -2.5734 4.89639 -71.36849 -4.40969 4.898879 -72.96243 -5.785908 4.89999 -81.15407 -5.31407 4.893274 -79.29043 -6.382193 4.899983 -74.87483 -6.684473 4.885748 -76.86004 -6.944355 4.888515 -72.84056 1.537444 1.22233 -72.64921 -0.06092023 1.158801 -73.2693 2.833007 1.459121 -73.10384 4.117643 2.414225 -71.54922 3.72587 3.600543 -74.73845 2.4246 0.6237851 -75.79987 4.269795 1.393144 -78.26659 5.759622 3.039352 -76.2163 5.955878 3.031015 -80.21323 1.984322 1.157402 -81.38391 -1.699703 1.884628 -83.0859 -0.4281046 3.764819 -82.46347 -1.681798 3.103459 -78.01725 -4.074844 1.338607 -77.3718 -5.516034 2.485925 -79.33003 -4.439772 2.059567 -79.69106 -5.626993 3.688153 -72.2335 -4.551481 3.676527 -74.03128 -1.050093 0.5581446 -72.68059 -1.667552 1.372308 -82.29534 2.769704 3.435714 -76.54978 1.368056 0.07519257 -77.55065 0.3126457 0.01623111 -77.44893 4.036414 1.207793 -78.7736 4.210396 1.652856 -79.58886 5.164494 2.978288 -78.86238 6.236951 4.182897 -80.39875 5.42986 4.053293 -76.62744 6.657207 4.232097 -74.63955 6.585433 4.897413 -74.7477 5.950265 3.495201 -72.99557 5.271877 3.810701 -70.7771 -2.12711 3.557922 -71.4459 -3.571089 3.649373 -73.27316 -5.222577 3.489948 -74.3525 -5.90856 3.659226 -80.95738 -4.092401 2.939638 -71.15545 0.8480783 2.567442 -70.2763 -0.6274663 3.853794 -70.3449 1.21419 3.852028 -70.03303 -1.942856 4.899658 -75.13063 -3.850774 1.230476 -74.69068 -5.129684 2.42765 -76.18479 -4.528941 1.552408 -76.25469 -5.935705 3.010287 -78.64151 -5.589812 3.000222 -77.79102 -6.477339 4.044144 -78.87391 -0.9550187 0.3264551 -76.83471 -1.300366 0.09213823 -77.88676 -2.372393 0.4529539 -80.12882 -2.773496 1.407348 -82.21186 -2.796484 3.339346 -81.89044 -3.855595 3.900974 -81.20884 0.4361751 1.515135 -81.63405 2.068691 2.289749 -81.17154 4.34462 3.420147 -76.43399 3.108059 0.6497941 -78.43006 2.62924 0.66832 -76.88619 5.298861 2.204231 -74.63072 5.059333 2.406831 -74.32656 3.933022 1.584388 -71.61177 2.656559 2.70352 -74.39371 0.8286375 0.366678 -79.88902 0.7747607 0.7442438 -79.71269 3.695375 1.712131 -80.85783 3.328638 2.260606 -82.31305 -0.1658177 2.569621 -80.1591 -0.8284957 0.8810476 -78.51669 1.310244 0.3084939 -82.57434 1.001593 3.032822 -78.88568 -2.658155 0.8209491 -75.77361 -1.873606 0.2498865 -76.7587 -3.320338 0.760964 -75.52819 -0.4376294 0.06287509 -74.3421 -2.420216 0.7722347 -73.31494 -3.788322 2.000398 -71.92658 -2.487058 2.288294 -71.19967 -0.6399595 2.476994</float_array>
          <technique_common>
            <accessor count="95" source="#verts-array-array" stride="3">
              <param type="float" name="X"/>
              <param type="float" name="Y"/>
              <param type="float" name="Z"/>
            </accessor>
          </technique_common>
        </source>
        <source id="normals-array">
          <float_array count="285" id="normals-array-array">-0.8557467 -0.04120971 0.5157512 0.8461475 0.1174323 0.51985 -0.8556469 0.1904796 0.4812338 -0.7340836 0.4566608 0.5025755 0.7896202 0.3557494 0.4999423 -0.5280547 0.6650408 0.5280899 0.6329511 0.5811364 0.5115206 0.4046126 0.7684288 0.4957881 -0.2440016 0.8291463 0.5029708 0.03460468 0.8384971 0.5438062 -0.8078536 -0.3233451 0.4927681 0.6671665 -0.5370628 0.5161903 0.4621794 -0.7164484 0.522582 -0.568664 -0.6594875 0.4916275 -0.317863 -0.7905864 0.5233891 0.2231052 -0.8439955 0.4877455 -0.006291425 -0.8705628 0.4920171 0.5352545 0.2064374 -0.8190764 0.5550474 -0.006471582 -0.8317935 0.4756803 0.3927925 -0.7870466 0.498747 0.5681126 -0.6545988 0.706093 0.5063035 -0.4950651 0.2599606 0.3309998 -0.9071161 0.1295736 0.5845954 -0.8009113 -0.2082561 0.7911249 -0.5751093 0.06850462 0.8164695 -0.5733102 -0.4777149 0.2777734 -0.8334449 -0.63703 -0.2376369 -0.7332949 -0.8823715 -0.05869415 -0.4668785 -0.7995333 -0.2187358 -0.5593757 -0.1777509 -0.5580943 -0.8105155 -0.09631172 -0.7455028 -0.6595071 -0.3625891 -0.6059641 -0.7080513 -0.4194783 -0.7675962 -0.4845968 0.6019153 -0.6241914 -0.4980794 0.3628715 -0.1319223 -0.9224537 0.5437261 -0.2333655 -0.8061653 -0.7703683 0.3749974 -0.5156643 0.02467803 0.1897981 -0.981513 -0.1127179 0.02827156 -0.9932247 -0.1071974 0.5496228 -0.8285068 -0.2732445 0.5871459 -0.7619693 -0.3949002 0.7008114 -0.5940683 -0.2962669 0.8460178 -0.4432605 -0.4947542 0.7556703 -0.4291628 0.0003496827 0.9097515 -0.4151532 0.2276792 0.8229736 0.5204581 0.2702338 0.8178207 -0.5080778 0.5100858 0.7173713 -0.4745428 0.8093568 -0.2964179 -0.5070286 0.7284959 -0.4764569 -0.4922221 0.471365 -0.7125052 -0.519761 0.3156731 -0.817496 -0.4817165 -0.5774424 -0.5600532 -0.5940545 0.7530373 0.1190365 -0.6471206 0.8920397 -0.07180155 -0.4462171 0.862982 0.1743693 -0.4741913 0.8286704 -0.245737 0.5029101 0.2208745 -0.5153505 -0.8280268 0.2756197 -0.6978614 -0.6610774 0.05672374 -0.628994 -0.7753379 0.07601871 -0.8184323 -0.5695522 -0.2695921 -0.7667179 -0.5826351 -0.1655711 -0.8865864 -0.4319152 -0.2913634 -0.1239461 -0.9485488 -0.03518405 -0.1678209 -0.9851894 -0.1467989 -0.3222316 -0.9352095 -0.473386 -0.3816329 -0.7938904 -0.7432976 -0.3881546 -0.5448346 -0.725624 -0.551832 -0.4110369 -0.6192407 0.05970117 -0.7829283 -0.6723904 0.2739683 -0.6876282 -0.6167755 0.5921434 -0.5186079 0.03165918 0.4111913 -0.9109991 -0.2307864 0.3597176 -0.904069 -0.03116687 0.7188851 -0.6944298 0.2855515 0.694496 -0.6604057 0.3208676 0.5345258 -0.7818735 0.6981511 0.3517073 -0.623608 0.3106758 0.1047747 -0.9447237 -0.425741 0.09598278 -0.8997399 -0.4187328 0.5018522 -0.7568403 -0.5700681 0.4586827 -0.6816396 -0.7625648 -0.02443249 -0.6464503 -0.4784116 -0.1170174 -0.8703041 -0.2485432 0.1763921 -0.9524243 -0.8108822 0.1458333 -0.5667475 -0.306666 -0.3695301 -0.8771565 0.1265845 -0.2678518 -0.9551083 -0.00359612 -0.4478897 -0.8940816 0.15709 -0.04672254 -0.9864785 0.328352 -0.3361485 -0.8827169 0.4697171 -0.515517 -0.7166645 0.6501266 -0.3498869 -0.6744735 0.7503186 -0.08971024 -0.6549611</float_array>
          <technique_common>
            <accessor count="95" source="#normals-array-array" stride="3">
              <param type="float" name="X"/>
              <param type="float" name="Y"/>
              <param type="float" name="Z"/>
            </accessor>
          </technique_common>
        </source>
        <vertices id="verts-array-vertices">
          <input semantic="POSITION" source="#verts-array"/>
        </vertices>
        <triangles count="186" material="material0">
          <input offset="0" semantic="VERTEX" source="#verts-array-vertices"/>
          <input offset="1" semantic="NORMAL" source="#normals-array"/>
          <p>3 3 12 12 1 1 16 16 12 12 14 14 14 14 3 3 0 0 12 12 3 3 14 14 6 6 3 3 1 1 6 6 5 5 3 3 10 10 14 14 0 0 15 15 12 12 16 16 28 28 10 10 0 0 4 4 6 6 1 1 14 14 10 10 13 13 68 68 27 27 53 53 12 12 15 15 52 52 31 31 32 32 30 30 6 6 48 48 7 7 21 21 48 48 6 6 6 6 4 4 21 21 17 17 22 22 19 19 8 8 5 5 9 9 28 28 86 86 83 83 2 2 28 28 0 0 2 2 86 86 28 28 0 0 3 3 2 2 69 69 13 13 10 10 10 10 68 68 69 69 53 53 13 13 69 69 69 69 68 68 53 53 10 10 28 28 29 29 29 29 68 68 10 10 28 28 83 83 29 29 27 27 68 68 29 29 29 29 83 83 27 27 12 12 52 52 51 51 51 51 52 52 59 59 30 30 32 32 87 87 33 33 13 13 53 53 53 53 32 32 33 33 14 14 13 13 33 33 59 59 52 52 61 61 61 61 15 15 16 16 61 61 52 52 15 15 60 60 58 58 59 59 59 59 61 61 60 60 60 60 61 61 31 31 60 60 31 31 30 30 56 56 4 4 1 1 20 20 76 76 48 48 48 48 21 21 20 20 45 45 8 8 9 9 24 24 8 8 45 45 47 47 7 7 48 48 48 48 76 76 47 47 22 22 17 17 79 79 79 79 38 38 22 22 43 43 8 8 24 24 37 37 2 2 3 3 86 86 2 2 37 37 5 5 8 8 44 44 8 8 43 43 44 44 86 86 37 37 71 71 71 71 37 37 82 82 39 39 64 64 85 85 85 85 38 38 39 39 67 67 87 87 32 32 53 53 27 27 67 67 67 67 32 32 53 53 27 27 84 84 67 67 67 67 84 84 64 64 64 64 87 87 67 67 14 14 33 33 63 63 16 16 14 14 63 63 63 63 61 61 16 16 31 31 61 61 63 63 32 32 31 31 62 62 62 62 33 33 32 32 31 31 63 63 62 62 62 62 63 63 33 33 39 39 38 38 90 90 38 38 79 79 90 90 35 35 88 88 90 90 90 90 79 79 35 35 66 66 87 87 64 64 30 30 87 87 66 66 78 78 56 56 54 54 54 54 17 17 78 78 78 78 21 21 4 4 4 4 56 56 78 78 78 78 17 17 19 19 19 19 20 20 78 78 78 78 20 20 21 21 77 77 20 20 19 19 76 76 20 20 77 77 77 77 23 23 76 76 19 19 22 22 77 77 22 22 23 23 77 77 40 40 23 23 73 73 73 73 23 23 22 22 22 22 38 38 73 73 76 76 23 23 75 75 75 75 23 23 40 40 40 40 41 41 75 75 75 75 41 41 24 24 7 7 47 47 46 46 6 6 7 7 46 46 46 46 45 45 9 9 46 46 47 47 45 45 9 9 5 5 46 46 5 5 6 6 46 46 24 24 41 41 42 42 42 42 43 43 24 24 42 42 44 44 43 43 35 35 79 79 18 18 18 18 79 79 17 17 18 18 17 17 54 54 91 91 88 88 35 35 58 58 88 88 91 91 54 54 56 56 55 55 55 55 56 56 1 1 12 12 51 51 34 34 26 26 71 71 82 82 65 65 64 64 39 39 65 65 66 66 64 64 88 88 66 66 65 65 39 39 90 90 65 65 65 65 90 90 88 88 89 89 88 88 58 58 89 89 66 66 88 88 58 58 60 60 89 89 89 89 60 60 30 30 30 30 66 66 89 89 25 25 47 47 76 76 76 76 75 75 25 25 45 45 47 47 25 25 24 24 45 45 25 25 25 25 75 75 24 24 81 81 42 42 41 41 81 81 26 26 82 82 44 44 42 42 72 72 82 82 37 37 72 72 72 72 81 81 82 82 42 42 81 81 72 72 72 72 37 37 3 3 3 3 5 5 72 72 5 5 44 44 72 72 35 35 18 18 36 36 36 36 91 91 35 35 58 58 91 91 92 92 59 59 58 58 92 92 92 92 36 36 93 93 91 91 36 36 92 92 93 93 34 34 92 92 92 92 51 51 59 59 92 92 34 34 51 51 50 50 34 34 93 93 71 71 26 26 70 70 70 70 83 83 86 86 86 86 71 71 70 70 27 27 83 83 70 70 70 70 84 84 27 27 85 85 26 26 74 74 26 26 81 81 74 74 74 74 81 81 41 41 74 74 41 41 40 40 40 40 73 73 74 74 38 38 85 85 74 74 74 74 73 73 38 38 94 94 18 18 54 54 94 94 36 36 18 18 93 93 36 36 94 94 54 54 55 55 94 94 12 12 34 34 11 11 34 34 50 50 11 11 49 49 50 50 93 93 93 93 94 94 49 49 49 49 94 94 55 55 84 84 70 70 80 80 80 80 70 70 26 26 80 80 26 26 85 85 64 64 84 84 80 80 80 80 85 85 64 64 57 57 11 11 50 50 50 50 49 49 57 57 57 57 49 49 55 55 57 57 55 55 1 1 1 1 12 12 57 57 12 12 11 11 57 57</p>
        </triangles>
      </mesh>
    </geometry>
  </library_geometries>
  <library_materials>
    <material id="80e08f42b29341e8a3d84f87a1c5a78d" name="defaultmaterial">
      <instance_effect url="#d46f9c446b51487dadf6c26d00ac234a"/>
    </material>
  </library_materials>
  <library_visual_scenes>
    <visual_scene id="scene">
      <node id="node0" name="node0">
        <instance_geometry url="#9332985ea92d4e80aea5e7230a4443e4">
          <bind_material>
            <technique_common>
              <instance_material symbol="material0" target="#80e08f42b29341e8a3d84f87a1c5a78d"/>
            </technique_common>
          </bind_material>
        </instance_geometry>
      </node>
    </visual_scene>
  </library_visual_scenes>
  <scene>
    <instance_visual_scene url="#scene"/>
  </scene>
</COLLADA>
