<COLLADA xmlns="http://www.collada.org/2005/11/COLLADASchema" version="1.4.1">
  <asset>
    <created>2025-05-12T22:56:25.861317</created>
    <modified>2025-05-12T22:56:25.861326</modified>
    <up_axis>Y_UP</up_axis>
  </asset>
  <library_effects>
    <effect id="ca6f42213d084b1d9a202cff58c94276" name="ca6f42213d084b1d9a202cff58c94276">
      <profile_COMMON>
        <technique sid="common">
          <phong>
            <emission>
              <color>0.0 0.0 0.0 1.0</color>
            </emission>
            <ambient>
              <color>0.0 0.0 0.0 1.0</color>
            </ambient>
            <diffuse>
              <color>0.0 0.0 0.0 1.0</color>
            </diffuse>
            <specular>
              <color>0.0 0.0 0.0 1.0</color>
            </specular>
            <shininess>
              <float>0.0</float>
            </shininess>
            <reflective>
              <color>0.0 0.0 0.0 1.0</color>
            </reflective>
            <reflectivity>
              <float>0.0</float>
            </reflectivity>
            <transparent>
              <color>0.0 0.0 0.0 1.0</color>
            </transparent>
            <transparency>
              <float>1.0</float>
            </transparency>
          </phong>
        </technique>
        <extra>
          <technique profile="GOOGLEEARTH">
            <double_sided>0</double_sided>
          </technique>
        </extra>
      </profile_COMMON>
    </effect>
  </library_effects>
  <library_geometries>
    <geometry id="2143090599a64f269ff6eafa474557f2" name="271c03fd753e4d78a1104dbf5c4bc86e">
      <mesh>
        <source id="verts-array">
          <float_array count="123" id="verts-array-array">46.25 -12.49017 123.9071 41.25 -14.62016 127.6556 46.25 15.4165 128.6929 41.24988 15.29159 128.332 26.16736 1.500205 131.4571 26.41111 -1.500013 129.6406 28.14044 -1.500407 127.0954 27.04654 1.500283 128.2516 29.70783 1.500256 126.2615 27.3372 1.499992 134.3031 26.38195 -1.500389 132.5684 42.75 -9.490171 123.9071 42.75 9.50983 123.9071 41.25 16.03603 131.0776 46.25 16.02336 130.7568 41.25 -13.36967 126.6708 41.25 -16.03612 131.0797 41.25 -15.58632 133.1933 41.25 13.36967 126.6708 30.59155 -1.5 126.1384 41.25 -15.55874 128.9722 27.64785 -1.5 134.6316 46.25 15.71346 132.8857 46.25 -16.02382 130.7618 41.25 15.58762 133.1902 46.25 -15.71074 132.8933 46.25 -15.41749 128.6944 46.25 12.50983 123.9071 48.25 12.50983 147.7071 48.25 -12.49017 123.9071 48.25 12.50983 123.9071 46.25 12.50983 147.7071 48.25 -12.49017 147.7071 46.25 -12.49017 147.7071 50.25131 0.9063094 134.4405 50.25 4.00983 137.9071 50.25 -3.99017 129.9071 50.25 -3.99017 137.9071 50.25 4.00983 129.9071 49.75 4.00983 145.2571 49.75 -3.99017 145.2571</float_array>
          <technique_common>
            <accessor count="41" source="#verts-array-array" stride="3">
              <param type="float" name="X"/>
              <param type="float" name="Y"/>
              <param type="float" name="Z"/>
            </accessor>
          </technique_common>
        </source>
        <source id="normals-array">
          <float_array count="123" id="normals-array-array">-0.08415764 -0.4879115 -0.8688267 -0.3741001 -0.705603 -0.6018085 0.2737453 0.89743 -0.3459523 -0.3618264 0.8207009 -0.4421896 -0.9243854 0.3777641 0.05297168 -0.8909778 -0.3694306 -0.2639689 -0.6260331 -0.2980119 -0.720605 -0.7899097 0.3491879 -0.5040937 -0.4254537 0.2196229 -0.8779265 -0.7744669 0.3211983 0.5450071 -0.8980786 -0.365129 0.2452259 -0.2238004 -0.210225 -0.9516926 -0.223413 0.2109548 -0.9516221 -0.3606803 0.9323491 -0.02519574 0.448881 0.8918394 -0.05593049 -0.4073493 -0.5182568 -0.7519817 -0.3602793 -0.9328261 -0.005855855 -0.3957394 -0.8823852 0.2545323 -0.4131731 0.5401505 -0.7331613 -0.2936701 -0.1360028 -0.9461824 -0.3528297 -0.8624142 -0.3629778 -0.7297104 -0.285609 0.6212489 0.2248273 0.9606895 0.1628753 0.452833 -0.8900548 -0.05238983 -0.3962153 0.8824781 0.2534675 0.2245604 -0.9605511 0.1640557 0.2749407 -0.8940127 -0.353764 -0.08546052 0.4827028 -0.8716046 0.5386165 0.5493682 0.6388167 0.5793574 -0.4510161 -0.6789179 0.5803871 0.4500179 -0.6787007 -0.290293 0.5794745 0.7615374 0.5387287 -0.5490005 0.6390382 -0.2902519 -0.5790349 0.7618874 1 6.355683e-05 3.579555e-05 0.993998 0.1065367 0.02485866 0.9883039 -0.08120631 -0.1290775 0.9939992 -0.1065284 0.02484509 0.9883021 0.08121152 -0.1290878 0.9584879 0.04748485 0.2811516 0.9584879 -0.04748485 0.2811516</float_array>
          <technique_common>
            <accessor count="41" source="#normals-array-array" stride="3">
              <param type="float" name="X"/>
              <param type="float" name="Y"/>
              <param type="float" name="Z"/>
            </accessor>
          </technique_common>
        </source>
        <vertices id="verts-array-vertices">
          <input semantic="POSITION" source="#verts-array"/>
        </vertices>
        <triangles count="78" material="material0">
          <input offset="0" semantic="VERTEX" source="#verts-array-vertices"/>
          <input offset="1" semantic="NORMAL" source="#normals-array"/>
          <p>28 28 30 30 14 14 7 7 5 5 4 4 4 4 13 13 7 7 33 33 31 31 21 21 21 21 31 31 9 9 34 34 36 36 38 38 38 38 35 35 34 34 32 32 23 23 29 29 16 16 5 5 20 20 20 20 23 23 16 16 5 5 7 7 6 6 19 19 11 11 6 6 6 6 20 20 5 5 1 1 20 20 6 6 13 13 14 14 3 3 3 3 7 7 13 13 28 28 14 14 22 22 22 22 14 14 13 13 22 22 31 31 28 28 39 39 35 35 28 28 9 9 31 31 24 24 24 24 13 13 4 4 4 4 9 9 24 24 24 24 22 22 13 13 31 31 22 22 24 24 10 10 17 17 33 33 33 33 21 21 10 10 16 16 17 17 10 10 10 10 5 5 16 16 4 4 5 5 10 10 10 10 9 9 4 4 10 10 21 21 9 9 40 40 32 32 37 37 37 37 36 36 34 34 34 34 35 35 37 37 16 16 23 23 25 25 23 23 32 32 25 25 25 25 17 17 16 16 25 25 32 32 33 33 33 33 17 17 25 25 0 0 20 20 1 1 29 29 23 23 26 26 23 23 20 20 26 26 26 26 0 0 29 29 20 20 0 0 26 26 8 8 6 6 7 7 19 19 6 6 8 8 12 12 11 11 8 8 8 8 11 11 19 19 27 27 3 3 30 30 2 2 14 14 30 30 30 30 3 3 2 2 2 2 3 3 14 14 11 11 0 0 15 15 15 15 0 0 1 1 1 1 6 6 15 15 15 15 6 6 11 11 18 18 27 27 12 12 3 3 27 27 18 18 12 12 8 8 18 18 7 7 3 3 18 18 18 18 8 8 7 7 38 38 36 36 29 29 38 38 29 29 30 30 38 38 30 30 28 28 28 28 35 35 38 38 32 32 31 31 33 33 28 28 31 31 32 32 28 28 32 32 39 39 39 39 32 32 40 40 29 29 36 36 37 37 37 37 32 32 29 29 37 37 39 39 40 40 35 35 39 39 37 37 30 30 29 29 27 27 29 29 0 0 27 27 27 27 11 11 12 12 27 27 0 0 11 11</p>
        </triangles>
      </mesh>
    </geometry>
  </library_geometries>
  <library_materials>
    <material id="9dac88d864b1439e96db9c31ba56b1a8" name="defaultmaterial">
      <instance_effect url="#ca6f42213d084b1d9a202cff58c94276"/>
    </material>
  </library_materials>
  <library_visual_scenes>
    <visual_scene id="scene">
      <node id="node0" name="node0">
        <instance_geometry url="#2143090599a64f269ff6eafa474557f2">
          <bind_material>
            <technique_common>
              <instance_material symbol="material0" target="#9dac88d864b1439e96db9c31ba56b1a8"/>
            </technique_common>
          </bind_material>
        </instance_geometry>
      </node>
    </visual_scene>
  </library_visual_scenes>
  <scene>
    <instance_visual_scene url="#scene"/>
  </scene>
</COLLADA>
