<COLLADA xmlns="http://www.collada.org/2005/11/COLLADASchema" version="1.4.1">
  <asset>
    <created>2025-05-12T22:56:25.852795</created>
    <modified>2025-05-12T22:56:25.852807</modified>
    <up_axis>Y_UP</up_axis>
  </asset>
  <library_effects>
    <effect id="5c3da63393b44b049579751424798579" name="5c3da63393b44b049579751424798579">
      <profile_COMMON>
        <technique sid="common">
          <phong>
            <emission>
              <color>0.0 0.0 0.0 1.0</color>
            </emission>
            <ambient>
              <color>0.0 0.0 0.0 1.0</color>
            </ambient>
            <diffuse>
              <color>0.0 0.0 0.0 1.0</color>
            </diffuse>
            <specular>
              <color>0.0 0.0 0.0 1.0</color>
            </specular>
            <shininess>
              <float>0.0</float>
            </shininess>
            <reflective>
              <color>0.0 0.0 0.0 1.0</color>
            </reflective>
            <reflectivity>
              <float>0.0</float>
            </reflectivity>
            <transparent>
              <color>0.0 0.0 0.0 1.0</color>
            </transparent>
            <transparency>
              <float>1.0</float>
            </transparency>
          </phong>
        </technique>
        <extra>
          <technique profile="GOOGLEEARTH">
            <double_sided>0</double_sided>
          </technique>
        </extra>
      </profile_COMMON>
    </effect>
  </library_effects>
  <library_geometries>
    <geometry id="d0f9b433445649af854a641c1d386e40" name="c8a646a4506c4059811e76c1f2b05f4d">
      <mesh>
        <source id="verts-array">
          <float_array count="171" id="verts-array-array">-6.810113 -74.09994 64.26708 2.216932 -99.10001 65.06297 32.20288 -74.10003 38.28044 -12.38619 -74.1 2.42559 -7.877103 -99.10001 0.8200374 24.6334 -74.09999 53.80438 27.57128 -99.10001 49.86277 29.0651 -74.09999 47.24475 16.95677 -74.10002 60.39086 -31.68202 -99.09997 40.02904 -32.4005 -74.10001 34.80961 -31.76706 -74.1 25.97009 29.20517 -74.09993 17.5872 30.70272 -99.09999 21.42636 -30.12302 -74.09993 44.55527 -25.72425 -99.10001 52.47813 -21.47604 -74.10007 7.880856 -16.65548 -99.10002 4.58898 -32.20351 -99.10004 28.23327 3.052292 -74.09999 0.06345415 12.60536 -99.10001 2.261257 2.102358 -99.10001 -0.009121119 -7.099603 -99.101 10.76165 -28.79443 -74.09996 17.40505 -29.73324 -99.1 19.5101 32.36644 -74.10006 28.21126 21.72078 -99.10064 39.58984 -22.81242 -99.10076 31.68333 7.783731 -99.10079 10.96659 6.031685 -99.10083 54.55594 -16.88663 -74.10004 60.31843 21.85251 -99.10001 8.274032 21.29512 -74.1 7.658466 11.9833 -74.09997 2.119449 -6.700595 -99.10092 54.31455 32.52003 -99.09998 29.66879 22.62011 -99.1 55.91287 -24.58981 -99.10005 11.08676 -25.25421 -74.09996 52.90962 -8.804156 -99.09997 63.7363 31.82876 -99.10002 40.17345 -4.860183 -74.09999 0.309647 4.695177 -74.09996 64.83715 14.7367 -99.09999 61.61705 23.03349 -99.10084 31.38227 -16.96368 -99.10008 60.18372 27.04955 -99.10001 14.24551 -4.830205 -69.1 31.86819 -0.8612545 -69.09998 29.76111 -3.96033 -69.10003 35.48949 0.667237 -69.10005 37.59244 4.956075 -69.1 31.42204 3.00176 -69.1 28.29332 4.535182 -69.09992 34.76425 -3.342523 -69.1 28.82915 -0.6049164 -69.10005 27.56059 -2.379245 -69.09994 33.93723</float_array>
          <technique_common>
            <accessor count="57" source="#verts-array-array" stride="3">
              <param type="float" name="X"/>
              <param type="float" name="Y"/>
              <param type="float" name="Z"/>
            </accessor>
          </technique_common>
        </source>
        <source id="normals-array">
          <float_array count="171" id="normals-array-array">-0.1670915 0.6136834 0.7716691 0.05352637 -0.670018 0.7404126 0.7776614 0.6134354 0.1376222 -0.3107458 0.619481 -0.7208886 -0.1778495 -0.6758472 -0.7152623 0.5866096 0.6188873 0.5223673 0.6238454 -0.6810133 0.383455 0.7018284 0.6188362 0.3528153 0.4003594 0.6115422 0.682443 -0.7198944 -0.6704466 0.1795924 -0.7849752 0.6165642 0.06051944 -0.76933 0.6187383 -0.1590414 0.7028184 0.6098835 -0.3661809 0.6888046 -0.6825935 -0.2441604 -0.7312678 0.6157439 0.2934396 -0.5908664 -0.667729 0.4527857 -0.5255554 0.6108938 -0.5921152 -0.3784585 -0.6812969 -0.626581 -0.73096 -0.6767627 -0.08769115 0.07775188 0.6170309 -0.7830884 0.2848727 -0.6700138 -0.6855137 0.04888726 -0.6777001 -0.7337116 -1.731565e-05 -1 -4.914194e-05 -0.6954967 0.6148009 -0.3718927 -0.6716753 -0.6806584 -0.2925003 0.78121 0.6152399 -0.1057867 4.584318e-05 -1 3.224505e-05 -4.896528e-05 -1 4.763163e-07 2.454232e-05 -1 -4.651348e-05 2.029086e-05 -1 4.671972e-05 -0.4151455 0.6094841 0.6754135 0.4834986 -0.6785898 -0.5529421 0.5195638 0.6101199 -0.5981698 0.2920487 0.6132004 -0.733957 -1.704515e-05 -1 4.762925e-05 0.7320506 -0.678933 -0.05614092 0.502059 -0.6819523 0.5318626 -0.557761 -0.6751026 -0.4828448 -0.610403 0.6120231 0.5028279 -0.1945652 -0.6779145 0.7089262 0.7184136 -0.6731856 0.1752228 -0.1173229 0.6200882 -0.77571 0.1179862 0.6075082 0.7855018 0.3209435 -0.6726379 0.6667485 4.896778e-05 -1 -2.28912e-06 -0.3960609 -0.6749121 0.6225989 0.6039674 -0.6821418 -0.4121965 -0.1028019 0.9946426 -0.01085679 -1.130815e-06 1 -1.223561e-05 -0.08169868 0.99443 0.06659093 0.01069423 0.994366 0.1054599 0.1005457 0.9946873 -0.02208343 0.0595004 0.9944922 -0.08628393 0.08986526 0.9945567 0.05273784 -0.07202605 0.9946648 -0.07385235 -0.01183468 0.9947247 -0.1018957 -1.603241e-05 1 1.472553e-05</float_array>
          <technique_common>
            <accessor count="57" source="#normals-array-array" stride="3">
              <param type="float" name="X"/>
              <param type="float" name="Y"/>
              <param type="float" name="Z"/>
            </accessor>
          </technique_common>
        </source>
        <vertices id="verts-array-vertices">
          <input semantic="POSITION" source="#verts-array"/>
        </vertices>
        <triangles count="110" material="material0">
          <input offset="0" semantic="VERTEX" source="#verts-array-vertices"/>
          <input offset="1" semantic="NORMAL" source="#normals-array"/>
          <p>1 1 0 0 39 39 39 39 34 34 1 1 10 10 9 9 14 14 1 1 34 34 29 29 54 54 16 16 23 23 3 3 16 16 54 54 9 9 27 27 15 15 15 15 27 27 34 34 15 15 14 14 9 9 53 53 52 52 48 48 48 48 52 52 54 54 55 55 52 52 19 19 54 54 52 52 55 55 55 55 3 3 54 54 51 51 52 52 53 53 53 53 48 48 56 56 56 56 48 48 54 54 56 56 50 50 53 53 49 49 50 50 56 56 0 0 50 50 30 30 30 30 50 50 49 49 30 30 39 39 0 0 53 53 5 5 7 7 42 42 0 0 1 1 42 42 50 50 0 0 20 20 32 32 31 31 13 13 25 25 35 35 37 37 23 23 16 16 34 34 39 39 45 45 45 45 15 15 34 34 39 39 30 30 45 45 45 45 30 30 15 15 41 41 55 55 19 19 3 3 55 55 41 41 4 4 3 3 41 41 19 19 52 52 33 33 52 52 32 32 33 33 33 33 20 20 19 19 32 32 20 20 33 33 52 52 51 51 12 12 12 12 32 32 52 52 12 12 51 51 25 25 25 25 13 13 12 12 47 47 56 56 54 54 49 49 56 56 47 47 54 54 23 23 47 47 23 23 11 11 47 47 47 47 11 11 10 10 10 10 14 14 47 47 14 14 49 49 47 47 38 38 49 49 14 14 38 38 30 30 49 49 14 14 15 15 38 38 15 15 30 30 38 38 35 35 25 25 2 2 53 53 7 7 2 2 2 2 51 51 53 53 25 25 51 51 2 2 50 50 42 42 8 8 8 8 5 5 53 53 53 53 50 50 8 8 8 8 36 36 5 5 19 19 20 20 21 21 21 21 41 41 19 19 4 4 41 41 21 21 18 18 27 27 9 9 18 18 9 9 10 10 10 10 11 11 18 18 17 17 37 37 16 16 16 16 3 3 17 17 17 17 3 3 4 4 36 36 8 8 43 43 1 1 29 29 43 43 29 29 36 36 43 43 43 43 42 42 1 1 43 43 8 8 42 42 35 35 2 2 40 40 40 40 2 2 7 7 6 6 36 36 29 29 29 29 26 26 6 6 6 6 40 40 7 7 6 6 7 7 5 5 5 5 36 36 6 6 44 44 13 13 35 35 35 35 40 40 44 44 44 44 6 6 26 26 40 40 6 6 44 44 44 44 29 29 34 34 44 44 26 26 29 29 24 24 37 37 27 27 27 27 18 18 24 24 23 23 37 37 24 24 24 24 11 11 23 23 24 24 18 18 11 11 13 13 44 44 46 46 46 46 12 12 13 13 31 31 32 32 46 46 32 32 12 12 46 46 28 28 20 20 31 31 31 31 46 46 28 28 28 28 46 46 44 44 28 28 21 21 20 20 4 4 21 21 22 22 21 21 28 28 22 22 22 22 17 17 4 4 37 37 17 17 22 22 27 27 37 37 22 22 34 34 27 27 22 22 22 22 44 44 34 34 22 22 28 28 44 44</p>
        </triangles>
      </mesh>
    </geometry>
  </library_geometries>
  <library_materials>
    <material id="f477ce082c694538865f048743cd1713" name="defaultmaterial">
      <instance_effect url="#5c3da63393b44b049579751424798579"/>
    </material>
  </library_materials>
  <library_visual_scenes>
    <visual_scene id="scene">
      <node id="node0" name="node0">
        <instance_geometry url="#d0f9b433445649af854a641c1d386e40">
          <bind_material>
            <technique_common>
              <instance_material symbol="material0" target="#f477ce082c694538865f048743cd1713"/>
            </technique_common>
          </bind_material>
        </instance_geometry>
      </node>
    </visual_scene>
  </library_visual_scenes>
  <scene>
    <instance_visual_scene url="#scene"/>
  </scene>
</COLLADA>
