<COLLADA xmlns="http://www.collada.org/2005/11/COLLADASchema" version="1.4.1">
  <asset>
    <created>2025-05-12T22:56:25.802237</created>
    <modified>2025-05-12T22:56:25.802244</modified>
    <up_axis>Y_UP</up_axis>
  </asset>
  <library_effects>
    <effect id="b3cb77dc22a44f4ab645c4cc8357cb1c" name="b3cb77dc22a44f4ab645c4cc8357cb1c">
      <profile_COMMON>
        <technique sid="common">
          <phong>
            <emission>
              <color>0.0 0.0 0.0 1.0</color>
            </emission>
            <ambient>
              <color>0.0 0.0 0.0 1.0</color>
            </ambient>
            <diffuse>
              <color>0.0 0.0 0.0 1.0</color>
            </diffuse>
            <specular>
              <color>0.0 0.0 0.0 1.0</color>
            </specular>
            <shininess>
              <float>0.0</float>
            </shininess>
            <reflective>
              <color>0.0 0.0 0.0 1.0</color>
            </reflective>
            <reflectivity>
              <float>0.0</float>
            </reflectivity>
            <transparent>
              <color>0.0 0.0 0.0 1.0</color>
            </transparent>
            <transparency>
              <float>1.0</float>
            </transparency>
          </phong>
        </technique>
        <extra>
          <technique profile="GOOGLEEARTH">
            <double_sided>0</double_sided>
          </technique>
        </extra>
      </profile_COMMON>
    </effect>
  </library_effects>
  <library_geometries>
    <geometry id="2322bc8dba1541d8b0c8572383e6f6a3" name="d6cf2f4a05d5459dab9edb245a07c18e">
      <mesh>
        <source id="verts-array">
          <float_array count="192" id="verts-array-array">-52.12581 -22.85998 167 -52.12676 22.86191 167 -61.79558 -7.58704 175.7127 -61.86834 -7.173617 167 -62.70602 -1.410272 175.7127 -62.6895 1.728369 167 -62.59648 -2.685615 167 -59.48254 13.74979 167 -55.37752 19.68315 167 -53.84304 21.31958 175.7127 -48.94159 25.2818 175.7127 -47.84297 25.95273 167 -42.48645 28.40011 175.7127 -42.0796 28.50357 167 -35.47603 29.89913 175.7127 -29.67999 29.83472 167 -35.98261 29.84858 167 -28.3101 29.69339 175.7127 -21.39725 27.79461 175.7127 -15.90884 24.81809 175.7127 -11.74825 21.41242 175.7127 -8.84908 18.08277 175.7127 -9.041567 18.33442 167 -5.913948 13.46321 175.7127 -4.389097 9.757775 167 -4.019682 8.532155 175.7127 -2.894909 3.175825 175.7127 -2.953032 3.681596 167 -2.929989 -3.487249 167 -4.111099 -8.831439 167 -6.057182 -13.74228 167 -9.253703 -18.68844 175.7127 -10.0765 -19.67844 167 -14.06288 -23.42868 167 -18.88674 -26.62881 175.7127 -18.43718 -26.38993 167 -29.03929 -29.73686 175.7127 -33.13046 -29.98694 167 -28.72512 -29.69598 167 -43.26328 -28.119 175.7127 -42.78493 -28.29326 167 -48.45738 -25.54615 167 -55.28975 -19.78088 167 -59.16837 -14.2572 175.7127 -59.37943 -13.94573 167 -56.80647 17.87133 175.7127 -24.70612 -28.89092 175.7127 -24.27428 -28.76722 167 -37.65726 -29.56254 167 -61.89997 7.046746 167 -23.56307 28.58358 167 -12.07131 21.72456 167 -6.586912 14.66475 167 -62.56653 3.002487 175.7127 -61.79117 7.482574 175.7127 -59.61575 13.39791 175.7127 -17.04866 25.59102 167 -2.915234 -3.067716 175.7127 -3.942673 -8.34533 175.7127 -5.895958 -13.35468 175.7127 -13.64988 -23.12191 175.7127 -35.42209 -29.94156 175.7127 -48.83827 -25.308 175.7127 -54.46252 -20.78875 175.7127</float_array>
          <technique_common>
            <accessor count="64" source="#verts-array-array" stride="3">
              <param type="float" name="X"/>
              <param type="float" name="Y"/>
              <param type="float" name="Z"/>
            </accessor>
          </technique_common>
        </source>
        <source id="normals-array">
          <float_array count="192" id="normals-array-array">-0.463267 -0.5524661 -0.6929393 -0.4642504 0.5519119 -0.6927228 -0.7050782 -0.1884963 0.6836183 -0.702859 -0.1821679 -0.6876075 -0.7227436 -0.04149832 0.6898692 -0.7217281 0.04594718 -0.69065 -0.7182103 -0.06798533 -0.6924969 -0.6519216 0.3332569 -0.68113 -0.5525983 0.4679006 -0.6897131 -0.5042176 0.5187702 0.6903927 -0.3901362 0.6146356 0.6855777 -0.3609475 0.6318784 -0.6858911 -0.2356085 0.6914245 0.6829501 -0.2244877 0.6916184 -0.6864906 -0.06707558 0.7271704 0.6831721 0.07126944 0.7226595 -0.6875202 -0.08016911 0.7254333 -0.6836077 0.1062409 0.7212954 0.684431 0.2735347 0.674823 0.6854143 0.4066425 0.6002768 0.6887014 0.5046964 0.5195314 0.6894698 0.5777301 0.4328779 0.691986 0.5703286 0.4418059 -0.6924831 0.6487796 0.3268085 0.6872272 0.686722 0.2316864 -0.6890096 0.6934723 0.2029936 0.6912957 0.7254432 0.07236864 0.6844669 0.7243663 0.08535193 -0.6841115 0.725089 -0.07804373 -0.6842186 0.6909588 -0.2132881 -0.6907128 0.6456591 -0.3383967 -0.6845525 0.5714306 -0.4519242 0.6850048 0.5529993 -0.4738753 -0.6852984 0.4504395 -0.5662276 -0.690283 0.3364527 -0.6468509 0.6843855 0.3454085 -0.6417513 -0.684725 0.08339715 -0.7175417 0.6915048 -0.005945337 -0.7221637 -0.6916966 0.09745067 -0.7148216 -0.6924835 -0.2511506 -0.6854008 0.6834831 -0.2452176 -0.6867356 -0.6842971 -0.3741045 -0.6215486 -0.6882755 -0.5548538 -0.4669995 -0.688512 -0.6410952 -0.3504514 0.6827744 -0.6497551 -0.3410765 -0.6793269 -0.581695 0.4276843 0.6918939 0.2010225 -0.6967743 0.688546 0.2115761 -0.6939114 -0.6882751 -0.1267352 -0.7112858 -0.6913832 -0.7044631 0.1778161 -0.6871049 0.2246128 0.6926441 -0.6854146 0.4954565 0.5290793 -0.6889107 0.6314444 0.3525901 -0.6906216 -0.7168549 0.07446091 0.6932349 -0.7011352 0.1891045 0.6874947 -0.6540891 0.3189781 0.685872 0.3795632 0.6216606 -0.6851787 0.7229069 -0.06879385 0.6875122 0.6965111 -0.202777 0.6882977 0.6486934 -0.3253593 0.6879958 0.4613008 -0.5611442 0.6872545 -0.07117813 -0.7276493 0.6822464 -0.391076 -0.6123194 0.6871131 -0.5322719 -0.5028403 0.6810567</float_array>
          <technique_common>
            <accessor count="64" source="#normals-array-array" stride="3">
              <param type="float" name="X"/>
              <param type="float" name="Y"/>
              <param type="float" name="Z"/>
            </accessor>
          </technique_common>
        </source>
        <vertices id="verts-array-vertices">
          <input semantic="POSITION" source="#verts-array"/>
        </vertices>
        <triangles count="124" material="material0">
          <input offset="0" semantic="VERTEX" source="#verts-array-vertices"/>
          <input offset="1" semantic="NORMAL" source="#normals-array"/>
          <p>16 16 12 12 14 14 14 14 15 15 16 16 38 38 36 36 37 37 60 60 32 32 31 31 4 4 5 5 6 6 7 7 54 54 55 55 45 45 9 9 8 8 8 8 7 7 45 45 45 45 7 7 55 55 2 2 3 3 44 44 44 44 43 43 2 2 2 2 6 6 3 3 4 4 6 6 2 2 63 63 43 43 42 42 42 42 43 43 44 44 24 24 23 23 25 25 11 11 10 10 12 12 17 17 15 15 14 14 22 22 51 51 20 20 20 20 51 51 19 19 50 50 17 17 18 18 15 15 17 17 50 50 36 36 38 38 46 46 35 35 60 60 34 34 31 31 32 32 30 30 27 27 25 25 26 26 24 24 25 25 27 27 53 53 5 5 4 4 54 54 7 7 49 49 49 49 53 53 54 54 5 5 53 53 49 49 63 63 42 42 0 0 41 41 39 39 62 62 62 62 0 0 41 41 63 63 0 0 62 62 40 40 39 39 41 41 37 37 36 36 61 61 12 12 16 16 13 13 13 13 11 11 12 12 9 9 10 10 1 1 10 10 11 11 1 1 8 8 9 9 1 1 21 21 22 22 20 20 52 52 23 23 24 24 52 52 21 21 23 23 22 22 21 21 52 52 18 18 19 19 56 56 56 56 50 50 18 18 56 56 19 19 51 51 32 32 60 60 33 33 60 60 35 35 33 33 34 34 46 46 47 47 47 47 35 35 34 34 47 47 46 46 38 38 31 31 30 30 59 59 59 59 30 30 29 29 29 29 58 58 59 59 28 28 27 27 26 26 28 28 58 58 29 29 37 37 61 61 48 48 48 48 61 61 39 39 39 39 40 40 48 48 57 57 28 28 26 26 58 58 28 28 57 57 41 41 0 0 48 48 44 44 3 3 48 48 48 48 6 6 5 5 48 48 13 13 16 16 48 48 42 42 44 44 48 48 38 38 37 37 48 48 30 30 32 32 48 48 7 7 8 8 48 48 16 16 15 15 8 8 1 1 48 48 15 15 50 50 48 48 48 48 56 56 51 51 3 3 6 6 48 48 24 24 27 27 48 48 5 5 49 49 48 48 48 48 28 28 29 29 51 51 22 22 48 48 48 48 52 52 24 24 32 32 33 33 48 48 29 29 30 30 48 48 48 48 47 47 38 38 48 48 49 49 7 7 48 48 0 0 42 42 48 48 40 40 41 41 11 11 13 13 48 48 48 48 1 1 11 11 22 22 52 52 48 48 50 50 56 56 48 48 48 48 33 33 35 35 35 35 47 47 48 48 27 27 28 28 48 48 14 14 12 12 57 57 36 36 46 46 57 57 20 20 19 19 57 57 57 57 60 60 31 31 57 57 10 10 9 9 4 4 2 2 57 57 9 9 45 45 57 57 63 63 62 62 57 57 26 26 25 25 57 57 31 31 59 59 57 57 57 57 43 43 63 63 12 12 10 10 57 57 57 57 61 61 36 36 57 57 17 17 14 14 34 34 60 60 57 57 55 55 54 54 57 57 57 57 45 45 55 55 57 57 2 2 43 43 57 57 53 53 4 4 57 57 25 25 23 23 18 18 17 17 57 57 57 57 19 19 18 18 57 57 46 46 34 34 57 57 21 21 20 20 54 54 53 53 57 57 57 57 62 62 39 39 39 39 61 61 57 57 23 23 21 21 57 57 57 57 59 59 58 58</p>
        </triangles>
      </mesh>
    </geometry>
  </library_geometries>
  <library_materials>
    <material id="3774fff8de634c69a1fd447e84a9d389" name="defaultmaterial">
      <instance_effect url="#b3cb77dc22a44f4ab645c4cc8357cb1c"/>
    </material>
  </library_materials>
  <library_visual_scenes>
    <visual_scene id="scene">
      <node id="node0" name="node0">
        <instance_geometry url="#2322bc8dba1541d8b0c8572383e6f6a3">
          <bind_material>
            <technique_common>
              <instance_material symbol="material0" target="#3774fff8de634c69a1fd447e84a9d389"/>
            </technique_common>
          </bind_material>
        </instance_geometry>
      </node>
    </visual_scene>
  </library_visual_scenes>
  <scene>
    <instance_visual_scene url="#scene"/>
  </scene>
</COLLADA>
