<COLLADA xmlns="http://www.collada.org/2005/11/COLLADASchema" version="1.4.1">
  <asset>
    <created>2025-05-12T22:56:25.793181</created>
    <modified>2025-05-12T22:56:25.793189</modified>
    <up_axis>Y_UP</up_axis>
  </asset>
  <library_effects>
    <effect id="8fa65a5178aa432591d03177e818327f" name="8fa65a5178aa432591d03177e818327f">
      <profile_COMMON>
        <technique sid="common">
          <phong>
            <emission>
              <color>0.0 0.0 0.0 1.0</color>
            </emission>
            <ambient>
              <color>0.0 0.0 0.0 1.0</color>
            </ambient>
            <diffuse>
              <color>0.0 0.0 0.0 1.0</color>
            </diffuse>
            <specular>
              <color>0.0 0.0 0.0 1.0</color>
            </specular>
            <shininess>
              <float>0.0</float>
            </shininess>
            <reflective>
              <color>0.0 0.0 0.0 1.0</color>
            </reflective>
            <reflectivity>
              <float>0.0</float>
            </reflectivity>
            <transparent>
              <color>0.0 0.0 0.0 1.0</color>
            </transparent>
            <transparency>
              <float>1.0</float>
            </transparency>
          </phong>
        </technique>
        <extra>
          <technique profile="GOOGLEEARTH">
            <double_sided>0</double_sided>
          </technique>
        </extra>
      </profile_COMMON>
    </effect>
  </library_effects>
  <library_geometries>
    <geometry id="dccab9161a8e416e88182a073e4881c7" name="c211c72769934adea6c71adb7c525f77">
      <mesh>
        <source id="verts-array">
          <float_array count="168" id="verts-array-array">-0.5179811 99.10052 65.07911 -6.0176 74.10046 64.41883 2.835322 74.10042 64.91376 0.7134875 74.09999 -0.2218383 6.719183 99.10044 0.6633458 29.18884 99.10049 18.51536 24.3358 99.10054 11.01766 31.46114 74.10043 25.00087 29.62467 99.10047 45.69489 29.57392 74.1005 45.49293 12.28101 74.10051 62.49009 19.22369 74.10047 58.54133 -32.67191 74.10044 29.29543 -32.81476 99.10051 31.6343 -31.38367 99.10049 41.66841 10.40058 99.10053 63.24886 -0.2726346 99.10047 -0.04701101 -9.724511 74.10046 1.366353 -9.198996 99.10054 1.094491 22.7345 99.10137 33.45796 32.31497 74.1004 35.78168 28.36694 74.10041 16.8234 21.54378 74.10052 8.103996 -22.6027 74.10048 56.02221 -28.62341 74.10045 48.46918 25.55793 74.10041 52.37401 -19.76769 99.10053 6.356015 -8.068928 99.10134 53.84542 -5.434247 99.10095 10.28518 17.63791 99.10114 18.04952 -20.40435 99.10049 57.93695 -14.38713 74.10049 61.83694 -12.13886 99.10047 62.81429 -27.10372 99.10047 14.09494 12.36499 74.10041 2.417773 -16.9944 74.10047 4.599241 -24.8728 74.1005 11.09123 31.80736 99.10047 26.55364 18.45123 99.10049 59.09896 -31.03831 99.10049 22.14004 -32.06412 74.10048 38.93536 -30.03028 74.10048 19.51005 -27.40063 99.10051 50.468 6.808893 99.1014 54.22632 24.33635 99.1005 53.80436 32.2178 99.10051 35.421 -23.06759 99.10112 32.57262 15.80898 99.10054 4.046787 -0.8401989 69.09804 37.61849 4.733148 69.10048 31.86819 3.87727 69.10048 35.46747 -4.333076 69.10046 35.22329 -2.966932 69.10044 28.32972 0.4134128 69.10042 27.46424 3.523965 69.10047 29.17266 -5.165593 69.10042 31.47154</float_array>
          <technique_common>
            <accessor count="56" source="#verts-array-array" stride="3">
              <param type="float" name="X"/>
              <param type="float" name="Y"/>
              <param type="float" name="Z"/>
            </accessor>
          </technique_common>
        </source>
        <source id="normals-array">
          <float_array count="168" id="normals-array-array">-0.009708803 0.6736245 0.73901 -0.139362 -0.6200337 0.7720988 0.07808596 -0.6149862 0.7846621 0.02579932 -0.6098887 -0.792067 0.1653682 0.6821666 -0.7122514 0.6611489 0.6813055 -0.3141733 0.549753 0.6775465 -0.4885717 0.768121 -0.6165243 -0.172881 0.6771266 0.6738324 0.2957185 0.723382 -0.618619 0.3066416 0.2962522 -0.618227 0.7280316 0.4713713 -0.6184634 0.6287385 -0.7857349 -0.6134918 -0.07904688 -0.7372578 0.6754264 -0.01581363 -0.7041678 0.6797477 0.2051604 0.2338653 0.6770325 0.6978066 -0.01154002 0.6846313 -0.7287982 -0.2223533 -0.6171984 -0.7547352 -0.2120874 0.67321 -0.7083836 4.643485e-05 1 2.465189e-07 0.7888786 -0.6094597 0.07892736 0.6875976 -0.6157891 -0.3847251 0.5273899 -0.6126182 -0.5886925 -0.5399051 -0.6176248 0.5718759 -0.6893319 -0.6136709 0.3850058 0.6204294 -0.6166303 0.4845972 -0.4386609 0.6740526 -0.5943313 -2.1758e-05 1 4.082169e-05 -6.765902e-06 1 -2.982095e-05 2.358794e-05 1 -3.02687e-05 -0.4586373 0.6796951 0.5724215 -0.3488715 -0.6144634 0.7076181 -0.2626589 0.6749407 0.6895399 -0.6046101 0.6784242 -0.4173574 0.2993434 -0.615192 -0.7293369 -0.4108039 -0.6173701 -0.6708907 -0.5961971 -0.6139593 -0.5173036 0.7221627 0.6791948 -0.1310556 0.4166316 0.6810642 0.6021376 -0.6951646 0.6808709 -0.2305667 -0.7702702 -0.6173682 0.1598134 -0.7223884 -0.617521 -0.3111637 -0.6132137 0.6753684 0.4096908 1.655843e-05 1 4.434301e-05 0.555391 0.6810084 0.4772509 0.7318713 0.6775394 0.07283431 -3.678393e-05 1 -3.433487e-06 0.3653966 0.6762044 -0.6397131 -0.009924997 -0.9943785 0.1054178 0.1025748 -0.9946775 -0.009755791 0.0818704 -0.9944314 0.06635835 -0.08641982 -0.9945373 0.05854141 -0.05880553 -0.9946372 -0.08508043 0.01319569 -0.9945541 -0.1033831 0.07566909 -0.994683 -0.06985626 -0.1027964 -0.9944903 -0.02053886</float_array>
          <technique_common>
            <accessor count="56" source="#normals-array-array" stride="3">
              <param type="float" name="X"/>
              <param type="float" name="Y"/>
              <param type="float" name="Z"/>
            </accessor>
          </technique_common>
        </source>
        <vertices id="verts-array-vertices">
          <input semantic="POSITION" source="#verts-array"/>
        </vertices>
        <triangles count="108" material="material0">
          <input offset="0" semantic="VERTEX" source="#verts-array-vertices"/>
          <input offset="1" semantic="NORMAL" source="#normals-array"/>
          <p>54 54 22 22 21 21 21 21 22 22 6 6 20 20 8 8 9 9 9 9 50 50 20 20 0 0 2 2 15 15 48 48 54 54 49 49 49 49 50 50 48 48 20 20 50 50 49 49 54 54 21 21 49 49 3 3 4 4 34 34 34 34 22 22 54 54 47 47 34 34 4 4 6 6 22 22 47 47 22 22 34 34 47 47 18 18 28 28 16 16 3 3 18 18 16 16 16 16 4 4 3 3 16 16 47 47 4 4 23 23 31 31 30 30 5 5 21 21 6 6 20 20 49 49 7 7 7 7 49 49 21 21 7 7 37 37 20 20 21 21 5 5 7 7 7 7 5 5 37 37 17 17 18 18 3 3 53 53 54 54 48 48 48 48 52 52 53 53 3 3 34 34 53 53 53 53 34 34 54 54 53 53 17 17 3 3 52 52 17 17 53 53 55 55 52 52 48 48 36 36 52 52 55 55 36 36 33 33 26 26 26 26 28 28 18 18 28 28 26 26 46 46 46 46 26 26 33 33 13 13 14 14 46 46 0 0 15 15 43 43 43 43 27 27 0 0 48 48 2 2 1 1 1 1 31 31 48 48 1 1 2 2 0 0 40 40 24 24 14 14 13 13 12 12 40 40 40 40 14 14 13 13 12 12 55 55 40 40 42 42 30 30 27 27 42 42 46 46 14 14 27 27 46 46 42 42 14 14 24 24 42 42 42 42 24 24 23 23 23 23 30 30 42 42 32 32 30 30 31 31 32 32 1 1 0 0 31 31 1 1 32 32 0 0 27 27 32 32 27 27 30 30 32 32 10 10 15 15 2 2 10 10 2 2 48 48 48 48 50 50 10 10 50 50 11 11 10 10 50 50 9 9 25 25 25 25 11 11 50 50 25 25 9 9 8 8 38 38 43 43 15 15 15 15 10 10 38 38 38 38 10 10 11 11 35 35 52 52 36 36 35 35 17 17 52 52 36 36 26 26 35 35 18 18 17 17 35 35 35 35 26 26 18 18 51 51 55 55 48 48 23 23 24 24 51 51 24 24 40 40 51 51 51 51 40 40 55 55 48 48 31 31 51 51 51 51 31 31 23 23 41 41 55 55 12 12 36 36 55 55 41 41 41 41 33 33 36 36 13 13 46 46 39 39 39 39 46 46 33 33 33 33 41 41 39 39 39 39 12 12 13 13 39 39 41 41 12 12 37 37 5 5 19 19 19 19 5 5 6 6 28 28 46 46 19 19 19 19 46 46 27 27 27 27 43 43 19 19 43 43 38 38 44 44 8 8 19 19 44 44 44 44 19 19 43 43 44 44 25 25 8 8 11 11 25 25 44 44 44 44 38 38 11 11 45 45 19 19 8 8 37 37 19 19 45 45 45 45 8 8 20 20 20 20 37 37 45 45 6 6 47 47 29 29 29 29 19 19 6 6 28 28 19 19 29 29 29 29 16 16 28 28 47 47 16 16 29 29</p>
        </triangles>
      </mesh>
    </geometry>
  </library_geometries>
  <library_materials>
    <material id="8db62419c86e4e9fb3bab1c1d341e0fd" name="defaultmaterial">
      <instance_effect url="#8fa65a5178aa432591d03177e818327f"/>
    </material>
  </library_materials>
  <library_visual_scenes>
    <visual_scene id="scene">
      <node id="node0" name="node0">
        <instance_geometry url="#dccab9161a8e416e88182a073e4881c7">
          <bind_material>
            <technique_common>
              <instance_material symbol="material0" target="#8db62419c86e4e9fb3bab1c1d341e0fd"/>
            </technique_common>
          </bind_material>
        </instance_geometry>
      </node>
    </visual_scene>
  </library_visual_scenes>
  <scene>
    <instance_visual_scene url="#scene"/>
  </scene>
</COLLADA>
